<?xml version="1.0" standalone="no"?>
<!DOCTYPE svg PUBLIC "-//W3C//DTD SVG 1.1//EN" "http://www.w3.org/Graphics/SVG/1.1/DTD/svg11.dtd" >
<svg xmlns="http://www.w3.org/2000/svg" xmlns:xlink="http://www.w3.org/1999/xlink" version="1.1">
<metadata>
Created by FontForge 20170924 at Fri Apr  8 23:27:42 2005
 By www-data
Typeface (c) Pcboy Digital Cartoon Studios. 2005. All Rights Reserved
</metadata>
<defs>
<font id="DastNevis" horiz-adv-x="0" >
  <font-face 
    font-family="Dast Nevis"
    font-weight="400"
    font-stretch="normal"
    units-per-em="2048"
    panose-1="3 0 4 0 0 0 0 0 0 0"
    ascent="1638"
    descent="-410"
    bbox="-401 -1323 3785 2133"
    underline-thickness="60"
    underline-position="-930"
    unicode-range="U+0020-FEFC"
  />
<missing-glyph horiz-adv-x="684" 
d="M293 156v90h76v-90h-76zM300 313l-2 22q0 74 22 117q13 26 57 70q43 43 55 64q12 22 12 48q0 49 -31 81q-30 33 -69 33q-45 0 -74.5 -30t-36.5 -97l-67 11q9 95 58.5 139t121.5 44q71 0 119 -49q48 -48 48 -126q0 -44 -16 -76q-17 -32 -67 -81q-51 -48 -58 -76
q-10 -23 -10 -94h-62zM627 57v846h-570v-846h570zM684 960v-960h-684v960h684z" />
    <glyph glyph-name="uniFEFB" unicode="&#xfedf;&#xfe8e;" horiz-adv-x="1145" arabic-form="isolated" 
d="M1352 1341q60 0 80 -72v-10q0 -47 -50 -77q-188 -138 -428 -349q-129 -113 -235 -233v-2q73 -96 151 -298.5t-39 -390.5q-69 -79 -113 -98q-50 -34 -124 -65q-41 -16 -100 -16h-7q-165 0 -211 118q-32 67 -32 145q0 208 276 590q-288 357 -288 397v4q0 47 67 76l15 2
q54 0 290 -334l16 -17q1 5 65 72q269 267 415 382q156 132 219 170q18 6 33 6zM615 478q-198 -293 -217 -464v-18q0 -77 55 -109l49 -7q83 0 170 83q47 53 61 122q9 53 9 74q0 144 -125 319h-2z" />
    <glyph glyph-name="uniFEFC" unicode="&#xfee0;&#xfe8e;" horiz-adv-x="774" arabic-form="final" 
d="M854 66q-11 -84 -76 -69q-144 22 -195 148q-74 -127 -159 -230q-117 -139 -234 -139h-18q-68 0 -116 48q-63 -106 -111 -157t-87 -51q-59 0 -81 65l-2 16v8q0 40 50 76q94 92 121 139q133 162 180 366q52 223 68 350q27 73 84 73q65 0 83 -65l2 -18q-29 -231 -95 -456
l-86 -224v-5l23 -3q117 0 254 288q82 194 97.5 334.5t19.5 266.5t83 126h16q48 0 78 -58q7 -16 7 -33v-16q0 -92 -65 -489l-2 -27q10 -123 85 -160q87 -20 76 -104z" />
    <glyph glyph-name="uniFDF2" unicode="&#x627;&#xfedf;&#xfee0;&#xfeea;" horiz-adv-x="2091" arabic-form="isolated" 
d="M1319 1488q0 -106 -26 -106q-5 7 -12 49q-11 61 -37 97l55 52q20 -33 20 -92zM1529 1254q0 -55 -29 -92q-31 -40 -85 -40q-44 0 -88 32q-60 -64 -110 -64q-42 0 -68 30.5t-26 73.5q0 65 52 102q10 7 20 7q13 0 13 -11q0 -8 -9 -20q-36 -50 -24 -72t51 -22q52 0 73 34
q11 17 13 67q2 37 19 37q6 0 25.5 -58t52.5 -58q68 0 68 39q0 12 -4 25q-16 53 10 58q20 4 34 -24q12 -23 12 -44zM1515 959.5q26 28.5 72 17t88.5 -133.5t55.5 -331t-45.5 -354.5t-233.5 -157.5q-85 8 -85 70v23q0 69 85 69q100 0 125.5 134.5t3 282.5t-57 250t-8.5 130.5z
M1370 258.5q10 -73.5 49.5 -88.5t53.5 -41t9 -62t-35 -56t-78.5 3t-95 95.5t-29.5 184t70.5 104.5t49.5 -36.5t6 -103zM1316.5 959.5q34.5 33.5 71.5 4t33 -161.5t-19 -315.5t-73.5 -329t-233.5 -157.5q-85 8 -85 70v23q0 69 85 69q100 0 128.5 130.5t37 246.5t15 251.5
t41 169zM791 488q178 0 233 -130q15 -39 23 -163q6 -33 30 -33q65 -27 65 -73v-15q0 -62 -73 -80h-57q-81 0 -106 60q-23 28 -37 226q-15 58 -58 58l-15 2h-13q-157 0 -379 -243q-77 -98 -90 -145h3l35 5h7q81 -12 81 -78l2 -3v-2q0 -95 -150 -95q-119 0 -148 102l-3 26v22
q0 140 268 384q213 175 382 175zM1949 976q59 0 78 -64l1 -14q0 -77 -36 -872q-27 -59 -76 -59h-1q-80 9 -80 73q34 721 34 858q0 59 71 78h9z" />
    <glyph glyph-name="kala" unicode="&#xfb90;&#xfee0;&#xfe8e;" horiz-adv-x="1797" 
d="M2452 1919q42 0 57 -48v-18q0 -44 -69 -94l-695 -581q-322 -289 -374 -289q-16 -7 -40 -7q-48 0 -64 50l-4 23v1q0 53 63 86q310 225 1045 849q36 28 81 28zM1517 808h10q109 0 147 -126l5 -44q0 -170 -289 -401q-290 -203 -506 -203q-129 0 -195 77q-74 -127 -159 -230
q-117 -139 -234 -139h-18q-68 0 -116 48q-63 -99 -186 -229q-40 -42 -79 -42q-59 0 -81 65l-2 16v8q0 40 50 76q161 155 188 202q133 162 180 366q13 82 29 130q27 73 84 73q65 0 83 -65l2 -18q-25 -142 -56 -236l-86 -224v-5l23 -3q117 0 254 288q78 173 78 211
q0 34 43 195q61 172 140 172h16q48 0 78 -58q7 -16 7 -33v-16q0 -92 -126 -340l-2 -27q0 -86 57 -109l14 -3v3q-21 62 -21 83v6q0 183 239 337q106 77 225 135q130 60 204 60zM1016 276v-6q0 -34 8 -68q53 9 158 69q101 59 217 174q112 122 112 191q-4 19 -41 20
q-126 0 -369 -205q-53 -37 -82 -145z" />
    <glyph glyph-name="ka" unicode="&#xfb90;&#xfe8e;" horiz-adv-x="1291" 
d="M1910 2057q42 0 57 -48v-19q0 -44 -69 -94l-697 -582q-323 -290 -376 -290q-15 -7 -39 -7q-49 0 -65 50l-3 23v2q0 52 63 86q310 225 1047 851q37 28 82 28zM470 270v-7q0 -33 8 -68q53 9 159 70q101 58 217 174q112 122 112 192q-4 18 -41 20q-126 0 -369 -206
q-54 -37 -83 -145zM324 182q-21 61 -21 81v7q0 183 239 338q107 76 226 135q130 60 205 60h10q109 0 147 -126l5 -45q0 -170 -290 -402q-291 -203 -436 -216q-124 -12 -181 21q-76 31 -128 192l-8 85v11q0 249 367 637l31 12h27q51 0 69 -62v-15q0 -41 -115 -159
q-224 -265 -224 -401v-23q12 -107 77 -130z" />
    <glyph glyph-name="kal" unicode="&#xfb90;&#xfede;" horiz-adv-x="3069" 
d="M3701 1917q42 0 58 -48v-19q0 -44 -70 -94l-696 -583q-323 -289 -376 -289q-16 -7 -40 -7q-48 0 -64 50l-4 23v2q0 52 63 86q311 225 1048 850q36 29 81 29zM2261 270v-7q0 -33 8 -68q53 9 159 70q101 58 217 174q113 122 113 192q-5 18 -42 20q-126 0 -369 -206
q-54 -37 -83 -145zM2115 178v2q-21 63 -21 83v7q0 183 240 337q106 77 225 136q130 60 205 60h10q109 0 147 -126l5 -45q0 -170 -289 -402q-252 -176 -369.5 -190.5t-189.5 14.5t-107 95q-64 -94 -197 -234q-406 -396 -961 -396h-68q-347 0 -563 160q-155 131 -155 286v31
q0 175 193 367q188 165 357 215q213 66 348 66q145 0 169 -96l3 -28q-14 -104 -96 -104q-54 0 -66 56h-5q-150 0 -378 -86q-380 -191 -380 -426q0 -174 263 -261q109 -33 266 -33h3q837 0 1166 646q87 145 87 670v200l-3 23q0 56 66 81l23 2q62 0 83 -73v-5l3 -206
q0 -421 -53 -632q-8 -79 2 -134q13 -37 37 -60z" />
    <glyph glyph-name="kol" unicode="&#xfb90;&#xfee0;" horiz-adv-x="1259" 
d="M1909 1904q42 0 58 -48v-18q0 -44 -70 -94l-697 -583q-323 -289 -375 -289q-16 -7 -40 -7q-49 0 -65 50l-3 23v2q0 52 63 86q311 225 1048 850q36 28 81 28zM469 258v-7q0 -33 8 -68q53 9 159 70q101 58 217 174q112 122 112 192q-4 18 -41 19q-126 0 -369 -205
q-54 -37 -83 -145zM323 167v1q-21 62 -21 83v7q0 183 240 337q106 77 225 136q130 60 205 60h10q109 0 147 -126l5 -45q0 -170 -289 -402q-292 -204 -446 -211.5t-197 81.5q-66 -79 -193 -88q-85 8 -85 70v23q0 69 85 69q100 0 128.5 130.5t37 246.5t15 251.5t41 169t71.5 4
t33 -161.5t-19 -315q-9 -112 -34 -210l2 -18q10 -72 39 -92z" />
    <glyph glyph-name="kala" unicode="&#xfb94;&#xfee0;&#xfe8e;" horiz-adv-x="1787" 
d="M1517 808h10q109 0 147 -126l5 -44q0 -170 -289 -401q-290 -203 -506 -203q-129 0 -195 77q-74 -127 -159 -230q-117 -139 -234 -139h-18q-68 0 -116 48q-63 -99 -186 -229q-40 -42 -79 -42q-59 0 -81 65l-2 16v8q0 40 50 76q161 155 188 202q133 162 180 366
q13 82 29 130q27 73 84 73q65 0 83 -65l2 -18q-25 -142 -56 -236l-86 -224v-5l23 -3q117 0 254 288q78 173 78 211q0 34 43 195q61 172 140 172h16q48 0 78 -58q7 -16 7 -33v-16q0 -92 -126 -340l-2 -27q0 -86 57 -109l14 -3v3q-21 62 -21 83v6q0 183 239 337
q106 77 225 135q130 60 204 60zM1016 276v-6q0 -34 8 -68q53 9 158 69q101 59 217 174q112 122 112 191q-4 19 -41 20q-126 0 -369 -205q-53 -37 -82 -145zM2550 1671q56 0 77 -63v-21q0 -39 -101 -133q-586 -394 -1005 -448q-15 -7 -160 -28q-52 0 -67 70v17q0 37 56 70
q37 106 231 301q209 210 287 210h21q57 0 101 -91l3 -28v-11q0 -65 -195 -227q-93 -66 -147 -66h-7q-29 0 -77 35h-4q-97 -94 -105 -112h4q115 0 441 127.5t605 383.5z" />
    <glyph glyph-name="ka" unicode="&#xfb94;&#xfe8e;" horiz-adv-x="1313" 
d="M474 270v-7q0 -33 8 -68q53 9 159 70q101 58 217 174q112 122 112 192q-4 18 -41 20q-126 0 -369 -206q-54 -37 -83 -145zM328 182q-21 61 -21 81v7q0 183 239 338q107 76 226 135q130 60 205 60h10q109 0 147 -126l5 -45q0 -170 -290 -402q-291 -203 -436 -216
q-124 -12 -181 21q-76 31 -128 192l-8 85v11q0 249 367 637l31 12h27q51 0 69 -62v-15q0 -41 -115 -159q-224 -265 -224 -401v-23q12 -107 77 -130zM1991 1655q56 0 77 -63v-21q0 -39 -101 -133q-586 -394 -1005 -448q-15 -7 -160 -28q-52 0 -67 70v17q0 37 56 70
q37 106 231 301q209 210 287 210h21q57 0 101 -91l3 -28v-11q0 -65 -195 -227q-93 -66 -147 -66h-7q-29 0 -77 35h-4q-97 -94 -105 -112h4q115 0 441 127.5t605 383.5z" />
    <glyph glyph-name="kal" unicode="&#xfb94;&#xfede;" horiz-adv-x="3062" 
d="M2261 270v-7q0 -33 8 -68q53 9 159 70q101 58 217 174q113 122 113 192q-5 18 -42 20q-126 0 -369 -206q-54 -37 -83 -145zM2115 178v2q-21 63 -21 83v7q0 183 240 337q106 77 225 136q130 60 205 60h10q109 0 147 -126l5 -45q0 -170 -289 -402q-252 -176 -369.5 -190.5
t-189.5 14.5t-107 95q-64 -94 -197 -234q-406 -396 -961 -396h-68q-347 0 -563 160q-155 131 -155 286v31q0 175 193 367q188 165 357 215q213 66 348 66q145 0 169 -96l3 -28q-14 -104 -96 -104q-54 0 -66 56h-5q-150 0 -378 -86q-380 -191 -380 -426q0 -174 263 -261
q109 -33 266 -33h3q837 0 1166 646q87 145 87 670v200l-3 23q0 56 66 81l23 2q62 0 83 -73v-5l3 -206q0 -421 -53 -632q-8 -79 2 -134q13 -37 37 -60zM3708 1668q56 0 77 -63v-21q0 -39 -101 -133q-586 -394 -1005 -448q-15 -7 -160 -28q-52 0 -67 70v17q0 37 56 70
q37 106 231 301q209 210 287 210h21q57 0 101 -91l3 -28v-11q0 -65 -195 -227q-93 -66 -147 -66h-7q-29 0 -77 35h-4q-97 -94 -105 -112h4q115 0 441 127.5t605 383.5z" />
    <glyph glyph-name="kol" unicode="&#xfb94;&#xfee0;" horiz-adv-x="1262" 
d="M469 258v-7q0 -33 8 -68q53 9 159 70q101 58 217 174q112 122 112 192q-4 18 -41 19q-126 0 -369 -205q-54 -37 -83 -145zM323 167v1q-21 62 -21 83v7q0 183 240 337q106 77 225 136q130 60 205 60h10q109 0 147 -126l5 -45q0 -170 -289 -402q-292 -204 -446 -211.5
t-197 81.5q-66 -79 -193 -88q-85 8 -85 70v23q0 69 85 69q100 0 128.5 130.5t37 246.5t15 251.5t41 169t71.5 4t33 -161.5t-19 -315q-9 -112 -34 -210l2 -18q10 -72 39 -92zM1880 1636q56 0 77 -63v-21q0 -39 -101 -133q-586 -394 -1005 -448q-15 -7 -160 -28q-52 0 -67 70
v17q0 37 56 70q37 106 231 301q209 210 287 210h21q57 0 101 -91l3 -28v-11q0 -65 -195 -227q-93 -66 -147 -66h-7q-29 0 -77 35h-4q-97 -94 -105 -112h4q115 0 441 127.5t605 383.5z" />
    <glyph glyph-name="ckala" unicode="&#xfb91;&#xfee0;&#xfe8e;" horiz-adv-x="1528" 
d="M2452 1919q42 0 57 -48v-18q0 -44 -69 -94l-695 -581q-322 -289 -374 -289q-16 -7 -40 -7q-48 0 -64 50l-4 23v1q0 53 63 86q310 225 1045 849q36 28 81 28zM1517 808h10q109 0 147 -126l5 -44q0 -170 -289 -401q-290 -203 -506 -203q-129 0 -195 77q-74 -127 -159 -230
q-117 -139 -234 -139h-18q-68 0 -116 48q-63 -99 -186 -229q-40 -42 -79 -42q-59 0 -81 65l-2 16v8q0 40 50 76q161 155 188 202q133 162 180 366q13 82 29 130q27 73 84 73q65 0 83 -65l2 -18q-25 -142 -56 -236l-86 -224v-5l23 -3q117 0 254 288q78 173 78 211
q0 34 43 195q61 172 140 172h16q48 0 78 -58q7 -16 7 -33v-16q0 -92 -126 -340q-19 -106 29.5 -131.5t110.5 -16.5q-51 36 -51.5 104t32 142.5t166.5 191.5q106 77 225 135q130 60 204 60zM1107 227q176 103 292 218q112 122 112 191q-4 19 -41 20q-126 0 -369 -205
q-53 -37 -67.5 -106.5t73.5 -117.5zM1529 157q49 -5 68 -40.5t1 -71t-43.5 -44t-95 -3.5t-168 17t-203 51.5t-34.5 89.5t173.5 23.5t156.5 -25t145 2.5z" />
    <glyph glyph-name="cka" unicode="&#xfb91;&#xfe8e;" horiz-adv-x="952" 
d="M1913 1917q42 0 57 -48v-19q0 -44 -69 -94l-697 -582q-323 -290 -376 -290q-15 -7 -39 -7q-49 0 -65 50l-3 23v2q0 52 63 86q310 225 1047 851q37 28 82 28zM364 168q-50 55 -26.5 173t207.5 267q107 76 226 135q130 60 205 60h10q109 0 147 -126l5 -45q0 -170 -290 -402
q-291 -203 -436 -216q-124 -12 -181 21q-76 31 -128 192l-8 85v11q0 249 367 637l31 12h27q51 0 69 -62v-15q0 -41 -115 -159q-224 -265 -224 -401v-23q-3 -120 114 -144zM950 156q49 -5 68 -40.5t1 -71t-43.5 -43.5t-95 -3.5t-168 17t-203 52t-34.5 89.5t173.5 23.5
t156.5 -25.5t145 2zM567 213q176 103 292 218q112 122 112 191q-4 19 -41 20q-126 0 -369 -205q-53 -37 -67.5 -106.5t73.5 -117.5z" />
    <glyph glyph-name="ckol" unicode="&#xfb91;&#xfede;" horiz-adv-x="2731" 
d="M3701 1917q42 0 58 -48v-19q0 -44 -70 -94l-696 -583q-323 -289 -376 -289q-16 -7 -40 -7q-48 0 -64 50l-4 23v2q0 52 63 86q311 225 1048 850q36 29 81 29zM2165 157v2q-57 60 -30 177t199 271q106 77 225 136q130 60 205 60h10q109 0 147 -126l5 -45q0 -170 -289 -402
q-252 -176 -369.5 -190.5t-189.5 14.5t-107 95q-64 -94 -197 -234q-406 -396 -961 -396h-68q-347 0 -563 160q-155 131 -155 286v31q0 175 193 367q188 165 357 215q213 66 348 66q145 0 169 -96l3 -28q-14 -104 -96 -104q-54 0 -66 56h-5q-150 0 -378 -86
q-380 -191 -380 -426q0 -174 263 -261q109 -33 266 -33h3q837 0 1166 646q87 145 87 670v200l-3 23q0 56 66 81l23 2q62 0 83 -73v-5l3 -206q0 -421 -53 -632q-8 -79 2 -134q10 -64 87 -81zM2736 157q49 -5 68 -40.5t1 -71t-43.5 -44t-95 -3.5t-168.5 17.5t-203.5 52
t-34.5 89.5t173.5 23.5t157 -25.5t145.5 2zM2352 221q176 103 292 218q112 122 112 191q-4 19 -41 20q-126 0 -369 -205q-53 -37 -67.5 -106.5t73.5 -117.5z" />
    <glyph glyph-name="ckal" unicode="&#xfb91;&#xfee0;" horiz-adv-x="957" 
d="M1909 1904q42 0 58 -48v-18q0 -44 -70 -94l-697 -583q-323 -289 -375 -289q-16 -7 -40 -7q-49 0 -65 50l-3 23v2q0 52 63 86q311 225 1048 850q36 28 81 28zM392 150v1q-71 68 -38 198.5t188 245.5q106 77 225 136q130 60 205 60h10q109 0 147 -126l5 -45
q0 -170 -289 -402q-292 -204 -446 -211.5t-197 81.5q-66 -79 -193 -88q-85 8 -85 70v23q0 69 85 69q100 0 128.5 130.5t37 246.5t15 251.5t41 169t71.5 4t33 -161.5t-19 -315q-9 -112 -34 -210l2 -18q22 -106 108 -109zM958 157q49 -5 68 -40.5t1 -71t-43.5 -44t-95 -3.5
t-168 17.5t-203 52t-34.5 89.5t173.5 23.5t156.5 -25.5t145 2zM565 208q176 103 292 218q112 122 112 191q-4 19 -41 20q-126 0 -369 -205q-53 -37 -67.5 -106.5t73.5 -117.5z" />
    <glyph glyph-name="cgala" unicode="&#xfb95;&#xfee0;&#xfe8e;" horiz-adv-x="1528" 
d="M1517 808h10q109 0 147 -126l5 -44q0 -170 -289 -401q-290 -203 -506 -203q-129 0 -195 77q-74 -127 -159 -230q-117 -139 -234 -139h-18q-68 0 -116 48q-63 -99 -186 -229q-40 -42 -79 -42q-59 0 -81 65l-2 16v8q0 40 50 76q161 155 188 202q133 162 180 366
q13 82 29 130q27 73 84 73q65 0 83 -65l2 -18q-25 -142 -56 -236l-86 -224v-5l23 -3q117 0 254 288q78 173 78 211q0 34 43 195q61 172 140 172h16q48 0 78 -58q7 -16 7 -33v-16q0 -92 -126 -340q-19 -106 29.5 -131.5t110.5 -16.5q-51 36 -51.5 104t32 142.5t166.5 191.5
q106 77 225 135q130 60 204 60zM1107 227q176 103 292 218q112 122 112 191q-4 19 -41 20q-126 0 -369 -205q-53 -37 -67.5 -106.5t73.5 -117.5zM1529 157q49 -5 68 -40.5t1 -71t-43.5 -44t-95 -3.5t-168 17t-203 51.5t-34.5 89.5t173.5 23.5t156.5 -25t145 2.5zM2525 1703
q56 0 77 -63v-21q0 -39 -101 -133q-586 -394 -1005 -448q-15 -7 -160 -28q-52 0 -67 70v17q0 37 56 70q37 106 231 301q209 210 287 210h21q57 0 101 -91l3 -28v-11q0 -65 -195 -227q-93 -66 -147 -66h-7q-29 0 -77 35h-4q-97 -94 -105 -112h4q115 0 441 127.5t605 383.5z
" />
    <glyph glyph-name="cga" unicode="&#xfb95;&#xfe8e;" horiz-adv-x="952" 
d="M364 168q-50 55 -26.5 173t207.5 267q107 76 226 135q130 60 205 60h10q109 0 147 -126l5 -45q0 -170 -290 -402q-291 -203 -436 -216q-124 -12 -181 21q-76 31 -128 192l-8 85v11q0 249 367 637l31 12h27q51 0 69 -62v-15q0 -41 -115 -159q-224 -265 -224 -401v-23
q-3 -120 114 -144zM950 156q49 -5 68 -40.5t1 -71t-43.5 -43.5t-95 -3.5t-168 17t-203 52t-34.5 89.5t173.5 23.5t156.5 -25.5t145 2zM567 213q176 103 292 218q112 122 112 191q-4 19 -41 20q-126 0 -369 -205q-53 -37 -67.5 -106.5t73.5 -117.5zM2051 1825q56 0 77 -63
v-21q0 -39 -101 -133q-586 -394 -1005 -448q-15 -7 -160 -28q-52 0 -67 70v17q0 37 56 70q37 106 231 301q209 210 287 210h21q57 0 101 -91l3 -28v-11q0 -65 -195 -227q-93 -66 -147 -66h-7q-29 0 -77 35h-4q-97 -94 -105 -112h4q115 0 441 127.5t605 383.5z" />
    <glyph glyph-name="cgol" unicode="&#xfb95;&#xfede;" horiz-adv-x="2731" 
d="M2165 157v2q-57 60 -30 177t199 271q106 77 225 136q130 60 205 60h10q109 0 147 -126l5 -45q0 -170 -289 -402q-252 -176 -369.5 -190.5t-189.5 14.5t-107 95q-64 -94 -197 -234q-406 -396 -961 -396h-68q-347 0 -563 160q-155 131 -155 286v31q0 175 193 367
q188 165 357 215q213 66 348 66q145 0 169 -96l3 -28q-14 -104 -96 -104q-54 0 -66 56h-5q-150 0 -378 -86q-380 -191 -380 -426q0 -174 263 -261q109 -33 266 -33h3q837 0 1166 646q87 145 87 670v200l-3 23q0 56 66 81l23 2q62 0 83 -73v-5l3 -206q0 -421 -53 -632
q-8 -79 2 -134q10 -64 87 -81zM2736 157q49 -5 68 -40.5t1 -71t-43.5 -44t-95 -3.5t-168.5 17.5t-203.5 52t-34.5 89.5t173.5 23.5t157 -25.5t145.5 2zM2352 221q176 103 292 218q112 122 112 191q-4 19 -41 20q-126 0 -369 -205q-53 -37 -67.5 -106.5t73.5 -117.5z
M3704 1671q56 0 77 -63v-21q0 -39 -101 -133q-586 -394 -1005 -448q-15 -7 -160 -28q-52 0 -67 70v17q0 37 56 70q37 106 231 301q209 210 287 210h21q57 0 101 -91l3 -28v-11q0 -65 -195 -227q-93 -66 -147 -66h-7q-29 0 -77 35h-4q-97 -94 -105 -112h4q115 0 441 127.5
t605 383.5z" />
    <glyph glyph-name="cgal" unicode="&#xfb95;&#xfee0;" horiz-adv-x="957" 
d="M392 150v1q-71 68 -38 198.5t188 245.5q106 77 225 136q130 60 205 60h10q109 0 147 -126l5 -45q0 -170 -289 -402q-292 -204 -446 -211.5t-197 81.5q-66 -79 -193 -88q-85 8 -85 70v23q0 69 85 69q100 0 128.5 130.5t37 246.5t15 251.5t41 169t71.5 4t33 -161.5
t-19 -315q-9 -112 -34 -210l2 -18q22 -106 108 -109zM958 157q49 -5 68 -40.5t1 -71t-43.5 -44t-95 -3.5t-168 17.5t-203 52t-34.5 89.5t173.5 23.5t156.5 -25.5t145 2zM565 208q176 103 292 218q112 122 112 191q-4 19 -41 20q-126 0 -369 -205q-53 -37 -67.5 -106.5
t73.5 -117.5zM1918 1671q56 0 77 -63v-21q0 -39 -101 -133q-586 -394 -1005 -448q-15 -7 -160 -28q-52 0 -67 70v17q0 37 56 70q37 106 231 301q209 210 287 210h21q57 0 101 -91l3 -28v-11q0 -65 -195 -227q-93 -66 -147 -66h-7q-29 0 -77 35h-4q-97 -94 -105 -112h4
q115 0 441 127.5t605 383.5z" />
    <glyph glyph-name="uni062F_uni0648_uniFEB3_uniFE98_uniFE96_space_uni062F_uni0627_uni0631_uni0645_space_uni0627_uniFEA3_uniFEB4_uniFE8E_uni0646.rlig" unicode="&#x62f;&#x648;&#xfeb3;&#xfe98;&#xfe96;&#x20;&#x62f;&#x627;&#x631;&#x645;&#x20;&#x627;&#xfea3;&#xfeb4;&#xfe8e;&#x646;" horiz-adv-x="2775" 
d="M2476.5 733.5q23.5 22.5 22 50.5t-19.5 36t-47 -31t-33 -51q5 -14 29.5 -20.5t48 16zM2202 1195q32 0 54 -42v-8q0 -22 -38 -30h-9q-33 0 -40 50q0 25 33 30zM1915 789v-5q0 -51 48 -69l15 -2q32 0 73 44q26 35 26 64q0 35 -42 69q-17 8 -24 8q-26 0 -75 -56
q-21 -31 -21 -53zM2069 695q-11 -9 -23 -17q-43 -22 -72 -22h-12q-46 0 -85 43q-30 37 -30 90v3q0 44 52 108v1q-53 -16 -99 -36q-54 -25 -108 -62q-98 -77 -98 -151q0 -110 100 -215q8 -9 8 -20v-7q0 -25 -28 -34l-7 -1q-19 0 -37 26q-72 88 -94 189q-8 43 -8 69
q0 143 207 244q151 66 261 66q72 0 116 -65q23 -39 23 -86q0 -36 -18 -69q-1 -14 2 -21h1q51 0 78 80.5t42 96.5t33 10q36 -18 11 -70q-17 -47 -21 -59.5t-3 -34.5q1 -20 26 -25q7 2 14 3q16 2 35.5 26t60.5 84t88 60h2q28 0 46 -27t16.5 -78.5t-28.5 -95.5t-87 -45
q-54 4 -74 44q-38 -44 -69 -43h-1q-71 0 -79 53q-19 -29 -39 -41t-50 -13q-16 3 -26 10q-16 9 -26 32zM524 339q19 0 30 -19q3 -6 3 -14v-1q0 -11 -13 -30q-24 -40 -51 -81q-18 -31 -57 -77q-70 -91 -171 -205q-45 -49 -80 -86q-17 -18 -22 -18q-5 -3 -14 -3q-19 0 -30 22
q-2 5 -2 10v3q0 15 19 31q0 2 73 73q77 77 97 103q56 66 96 125q50 75 94 154q11 13 28 13zM2111 261q3 -5 3 -11q0 -30 -39 -79q48 6 80 20q49 28 49 49q0 9 -66 19l-27 3v-1zM672 163q11 7 31 60l8 34q-39 -38 -49.5 -64t10.5 -30zM887 168h2q67 -12 136.5 30.5
t77.5 104.5t-24.5 49.5t-106.5 -83.5q-68 -74 -85 -101zM1725.5 219q-1.5 28 -19.5 36t-47 -31t-34 -51q6 -14 30.5 -20.5t48 16t22 50.5zM1895 166q0 -10 16 -10q50 0 112 61q24 27 24 34q-11 10 -36 10q-65 0 -109 -71q-7 -15 -7 -24zM1529 -121q12 0 17 -12l-8 -29
q-3 -15 -186 -40h-2q-31 0 -31 23q0 28 35 38q47 10 175 20zM1511 160q8 3 16 4q16 2 35.5 26t60.5 84t88 60h2q27 0 45.5 -27t17.5 -79q-1 -27 -9 -52q2 -8 7 -10q12 -7 24 -8h1q23 0 35 1q-5 7 -5 13q0 47 56 102q33 30 67 42q10 22 27 22q61 0 186 -15q106 -18 106 -84
q0 -57 -74 -101q-31 -23 -128 -35q-43 -7 -90 -7q-47 1 -47 3q-63 -13 -137 -10q-1 1 -3 1q-15 -2 -35 10q-12 7 -21 18q-27 -29 -77 -30q-53 4 -74 44q-40 -48 -73 -42q-3 -1 -7 -1q-71 0 -78 53q-19 -29 -39.5 -41t-50.5 -13q-3 0 -6 1q-69 1 -76 53q-19 -29 -39.5 -41
t-50.5 -13q-7 1 -12 3q-11 0 -28 2q-29 4 -51 19q-14 11 -22 22q-95 -49 -233 -45q-27 0 -44 1q-17 -3 -54 -2q-2 0 -5 1q-13 -23 -30 -47q-29 -41 -104 -109q-76 -70 -98 -76l-6 1q-16 1 -26 22q-3 6 -2 14v2q3 25 33 43q33 28 72 65q54 52 80 94q-56 23 -50 75
q0 55 80 141q36 31 69 28q38 -4 50 -51q1 -16 0 -29q-4 -46 -29 -101q8 0 16 -1q6 -1 10 -2h26v10q0 16 71 98q65 68 88 86l-3 13q0 72 31 275q22 119 34 161q13 16 30 16q24 0 34 -27v-11q-43 -202 -56 -351l-2 -25h1q41 25 70 25q44 0 61 -49l2 -17q6 -126 -63 -191
q11 -11 47 -11q6 2 12 3q51 0 78 80.5t42 96.5t34 10q36 -18 10 -70q-17 -47 -21 -59.5t-3 -34.5q1 -19 24 -25l8 2q51 0 78 80.5t42 96.5t34 10q36 -18 10 -70q-17 -47 -21 -59.5t-3 -34.5t31 -26h4zM1246 630q32 0 54 -42v-8q0 -21 -38 -30h-9q-33 0 -39 50q0 26 32 30z
M510 1301q90 0 174.5 -45.5t132.5 -131t48 -177.5q0 -93 -46.5 -177t-131 -130.5t-177.5 -46.5q-91 0 -175.5 46.5t-131.5 130.5t-47 177q0 92 47.5 177.5t132.5 131t174 45.5zM510 1249q-75 0 -147.5 -39t-113.5 -111.5t-41 -151.5t40 -150.5t112 -111.5t150 -40
q79 0 151 40t112 111.5t40 150.5t-40.5 151.5t-113 111.5t-149.5 39zM375 1065q18 0 31 -13t13 -32t-13 -31.5t-31 -12.5q-19 0 -32.5 12.5t-13.5 31.5t13.5 32t32.5 13zM647 1065q18 0 31 -13t13 -32t-13 -31.5t-31 -12.5q-19 0 -32.5 12.5t-13.5 31.5t13 32t33 13z
M347 833l35 19q44 -79 128 -79q86 0 129 79l35 -19q-27 -53 -68.5 -80.5t-95.5 -27.5t-94.5 27.5t-68.5 80.5z" />
    <glyph glyph-name="uniFB59_uniFB59.rlig" unicode="&#xfb59;&#xfb59;" horiz-adv-x="843" 
d="M329 223.5q2 -50.5 71 -59.5q63 5 80 -73v-18q-16 -73 -83 -73q-165 -1 -182 122q-44 -68 -91.5 -95t-115.5 -30q-89 14 -83.5 88t80.5 86q118 0 180.5 186t97.5 223t78 24q83 -42 24 -162q-41 -109 -49.5 -138.5t-6.5 -80zM-21 -718q73 0 124 -96v-20q0 -49 -88 -68h-20
q-76 0 -92 116q0 58 76 68zM322 -418q35 0 52 -28l-26 -68q-9 -34 -590 -92h-8q-96 0 -96 52q0 66 108 88q152 24 560 48zM768 223.5q2 -50.5 71 -59.5q63 5 80 -73v-18q-16 -73 -83 -73q-165 0 -182 122q-44 -68 -91.5 -95t-115.5 -29q-89 13 -83.5 87t80.5 86
q118 0 180.5 186t97.5 223t78 24q83 -42 24 -162q-41 -109 -49.5 -138.5t-6.5 -80zM540 -1026q73 0 124 -96v-20q0 -49 -88 -68h-20q-76 0 -92 116q0 58 76 68zM883 -726q35 0 52 -28l-26 -68q-9 -34 -590 -92h-8q-96 0 -96 52q0 66 108 88q152 24 560 48z" />
    <glyph glyph-name="uniFE98_uniFE98.rlig" unicode="&#xfe98;&#xfe98;" horiz-adv-x="804" 
d="M328 223.5q2 -50.5 71 -59.5q63 5 80 -73v-18q-16 -73 -83 -73q-165 -1 -182 122q-44 -68 -91 -95t-116 -30q-89 14 -83.5 88t80.5 86q118 0 180.5 186t97.5 223t78 24q83 -42 24 -162q-40 -109 -49 -138.5t-7 -80zM640 1129q26 0 38 -28l-19 -68q-6 -35 -429 -92h-6
q-70 0 -70 52q0 65 79 88q109 24 407 48zM737 223.5q2 -50.5 71 -59.5q63 5 80 -73v-18q-16 -73 -83 -73q-165 -1 -182 122q-44 -68 -91 -95t-116 -30q-89 14 -83.5 88t80.5 86q118 0 180.5 186t97.5 223t78 24q83 -42 24 -162q-40 -109 -49 -138.5t-7 -80zM1017 942
q26 0 38 -28l-19 -68q-6 -35 -429 -92h-6q-70 0 -70 52q0 65 79 88q109 24 407 48z" />
    <glyph glyph-name="uniFE9C_uniFE9C.rlig" unicode="&#xfe9c;&#xfe9c;" horiz-adv-x="804" 
d="M328 223.5q2 -50.5 71 -59.5q63 5 80 -73v-18q-16 -73 -83 -73q-165 -1 -182 122q-44 -68 -91 -95t-116 -30q-89 14 -83.5 88t80.5 86q118 0 180.5 186t97.5 223t78 24q83 -42 24 -162q-40 -109 -49 -138.5t-7 -80zM229 1290q73 0 124 -96v-20q0 -49 -88 -68h-20
q-76 0 -92 116q0 58 76 68zM542 972q35 0 52 -28l-26 -68q-9 -35 -590 -92h-8q-96 0 -96 52q0 65 108 88q151 24 560 48zM733 223.5q2 -50.5 71 -59.5q63 5 80 -73v-18q-16 -73 -83 -73q-165 -1 -182 122q-44 -68 -91 -95t-116 -30q-89 14 -83.5 88t80.5 86q118 0 180.5 186
t97.5 223t78 24q83 -42 24 -162q-40 -109 -49 -138.5t-7 -80zM811 1713q73 0 124 -96v-20q0 -49 -88 -68h-20q-76 0 -92 116q0 58 76 68zM1124 1395q35 0 52 -28l-26 -68q-9 -35 -590 -92h-8q-96 0 -96 52q0 65 108 88q151 24 560 48z" />
    <glyph glyph-name="uniFEF4_uniFEF4.rlig" unicode="&#xfbff;&#xfbff;" horiz-adv-x="826" 
d="M324 223.5q2 -50.5 71 -59.5q63 5 80 -73v-18q-16 -73 -83 -73q-165 -1 -182 122q-44 -68 -91 -95t-116 -30q-89 14 -83.5 88t80.5 86q118 0 180.5 186t97.5 223t78 24q83 -42 24 -162q-40 -109 -49 -138.5t-7 -80zM392 -226q26 0 38 -28l-19 -68q-6 -35 -429 -92h-6
q-70 0 -70 52q0 65 79 88q109 24 407 48zM759 223.5q2 -50.5 71 -59.5q63 5 80 -73v-18q-16 -73 -83 -73q-165 -1 -182 122q-44 -68 -91 -95t-116 -30q-89 14 -83.5 88t80.5 86q118 0 180.5 186t97.5 223t78 24q83 -42 24 -162q-40 -109 -49 -138.5t-7 -80zM831 -487
q26 0 38 -28l-19 -68q-6 -35 -429 -92h-6q-70 0 -70 52q0 65 79 88q109 24 407 48z" />
    <glyph glyph-name="uni0622" unicode="&#x622;" horiz-adv-x="591" arabic-form="isolated" 
d="M1101 1448q-34 -41 -247 -64.5t-387 -92t-166.5 -171.5t12.5 -147.5t-58 -76.5l-27 1q-59 14 -65 102q-79 361 365.5 468t516 74t56.5 -93zM393 879q46 0 60 -53v-30q0 -38 -60 -157q-111 -249 -111 -528l2 -23q0 -59 -64 -84l-26 -4q-59 0 -83 66l-2 16v57
q0 278 173 621q42 119 111 119z" />
    <glyph glyph-name="uniFE82" unicode="&#x622;" horiz-adv-x="378" arabic-form="final" 
d="M499 958h27q51 0 69 -62v-15q0 -41 -115 -159q-224 -265 -224 -401v-23q15 -136 115 -136q85 0 85 -69v-23q0 -62 -85 -70q-193 0 -262 213l-8 85v11q0 249 367 637z" />
    <glyph glyph-name="uni0623" unicode="&#x623;" horiz-adv-x="596" arabic-form="isolated" 
d="M300 1720q24 0 52 -27q37 -35 37 -39l1 -4q0 -18 -28 -22h-5q-7 -4 -7 -13v-5q0 -23 47 -94q19 -32 19 -67q0 -47 -43 -79q-125 -125 -150 -125l-8 -1h-12q-25 0 -29 32q0 38 46 73l80 67q23 32 23 60q0 43 -62 111q-24 31 -24 59q0 49 34 67q16 7 29 7zM302 1115
q59 0 78 -64l1 -14q0 -77 -59 -689l-26 -340q-27 -60 -76 -60h-1q-80 9 -80 74q65 493 65 622q18 256 18 393q0 59 71 78h9z" />
    <glyph glyph-name="uniFE84" unicode="&#x623;" horiz-adv-x="370" arabic-form="final" 
d="M499 958h27q51 0 69 -62v-15q0 -41 -115 -159q-224 -265 -224 -401v-23q15 -136 115 -136q85 0 85 -69v-23q0 -62 -85 -70q-193 0 -262 213l-8 85v11q0 249 367 637zM435 1498q24 0 52 -27q37 -35 37 -39l1 -4q0 -18 -28 -22h-5q-7 -4 -7 -13v-5q0 -23 47 -94
q19 -32 19 -67q0 -47 -43 -79q-125 -125 -150 -125l-8 -1h-12q-25 0 -29 32q0 38 46 73l80 67q23 32 23 60q0 43 -62 111q-24 31 -24 59q0 49 34 67q16 7 29 7z" />
    <glyph glyph-name="uni0624" unicode="&#x624;" horiz-adv-x="474" arabic-form="isolated" 
d="M406 585q87 -8 114 -116q4 -38 1 -69q-18 -207 -227 -509q-67 -96 -240 -254q-177 -161 -227 -175l-15 1q-37 3 -59 52q-7 13 -5 33l1 4q5 57 76 100q76 65 165 150q126 120 177 199q-131 56 -120 181q13 140 198 338q85 72 161 65zM211 165l38 -21q26 18 84 166l19 80
q-91 -89 -133 -196zM213 1298q24 0 52 -27q37 -35 37 -39l1 -4q0 -18 -28 -22h-5q-7 -4 -7 -13v-5q0 -23 47 -94q19 -32 19 -67q0 -47 -43 -79q-125 -125 -150 -125l-8 -1h-12q-25 0 -29 32q0 38 46 73l80 67q23 32 23 60q0 43 -62 111q-24 31 -24 59q0 49 34 67q16 7 29 7z
" />
    <glyph glyph-name="uniFE86" unicode="&#x624;" horiz-adv-x="500" arabic-form="final" 
d="M489 164q49 -5 68 -40.5t8.5 -68.5t-43.5 -47.5t-149 -9t-72 94t188 71.5zM404 585q87 -8 114 -116q4 -38 1 -69q-18 -207 -227 -509q-67 -96 -240 -254q-177 -161 -227 -175l-15 1q-37 3 -59 52q-7 13 -5 33l1 4q5 57 76 100q76 65 165 150q126 120 187 219
q-130 54 -116 173q-1 128 184 326q85 72 161 65zM260 171q26 18 71 139l19 80q-91 -89 -114.5 -149.5t24.5 -69.5zM213 1298q24 0 52 -27q37 -35 37 -39l1 -4q0 -18 -28 -22h-5q-7 -4 -7 -13v-5q0 -23 47 -94q19 -32 19 -67q0 -47 -43 -79q-125 -125 -150 -125l-8 -1h-12
q-25 0 -29 32q0 38 46 73l80 67q23 32 23 60q0 43 -62 111q-24 31 -24 59q0 49 34 67q16 7 29 7z" />
    <glyph glyph-name="uniFE8B" unicode="&#x626;" horiz-adv-x="600" arabic-form="initial" 
d="M-6 1q-84 9 -79 78.5t76 80.5q171 3 249 73t97.5 203t73.5 167q0 6 30 7q107 -21 69 -161q-39 -184 -102 -262.5t-172 -138t-242 -47.5zM287 1546q24 0 52 -27q37 -35 37 -39l1 -4q0 -18 -28 -22h-5q-7 -4 -7 -13v-5q0 -23 47 -94q19 -32 19 -67q0 -47 -43 -79
q-125 -125 -150 -125l-8 -1h-12q-25 0 -29 32q0 38 46 73l80 67q23 32 23 60q0 43 -62 111q-24 31 -24 59q0 49 34 67q16 7 29 7z" />
    <glyph glyph-name="uniFE8C" unicode="&#x626;" horiz-adv-x="392" arabic-form="medial" 
d="M320 223.5q2 -50.5 71 -59.5q63 5 80 -73v-18q-16 -73 -83 -73q-165 -1 -182 122q-44 -68 -91 -95t-116 -30q-89 14 -83.5 88t80.5 86q118 0 180.5 186t97.5 223t78 24q83 -42 24 -162q-40 -109 -49 -138.5t-7 -80zM254 1328q24 0 52 -27q37 -35 37 -39l1 -4
q0 -18 -28 -22h-5q-7 -4 -7 -13v-5q0 -23 47 -94q19 -32 19 -67q0 -47 -43 -79q-125 -125 -150 -125l-8 -1h-12q-25 0 -29 32q0 38 46 73l80 67q23 32 23 60q0 43 -62 111q-24 31 -24 59q0 49 34 67q16 7 29 7z" />
    <glyph glyph-name="uni0627" unicode="&#x627;" horiz-adv-x="490" arabic-form="isolated" 
d="M306 1115q59 0 78 -64l1 -14q0 -77 -59 -689l-26 -340q-27 -60 -76 -60h-1q-80 9 -80 74q65 493 65 622q18 256 18 393q0 59 71 78h9z" />
    <glyph glyph-name="uniFE8E" unicode="&#x627;" horiz-adv-x="387" arabic-form="final" 
d="M499 958h27q51 0 69 -62v-15q0 -41 -115 -159q-224 -265 -224 -401v-23q15 -136 115 -136q85 0 85 -69v-23q0 -62 -85 -70q-193 0 -262 213l-8 85v11q0 249 367 637z" />
    <glyph glyph-name="uni0628" unicode="&#x628;" horiz-adv-x="1619" arabic-form="isolated" 
d="M1628 908q83 -12 83 -81q0 -361 -169 -518q-165 -157 -379 -235q-237 -83 -495 -83q-501 0 -614 210q-23 60 -23 98q0 183 268 349q113 58 235 91q192 45 326 45q51 0 75 -68v-28q0 -58 -78 -75h-53q-311 0 -523 -175q-93 -92 -93 -149q0 -134 366 -162l124 -2h2
q471 0 773 313q86 102 86 374q0 65 53 89q17 7 36 7zM722 -426q73 0 124 -96v-20q0 -49 -88 -68h-20q-76 0 -92 116q0 59 76 68z" />
    <glyph glyph-name="uniFE90" unicode="&#x628;" horiz-adv-x="1811" arabic-form="final" 
d="M1729 665q75 -4 83 -81q-111 -349 -320.5 -446t-389.5 -122t-438 -25q-501 0 -614 210q-23 60 -23 98q0 183 268 349q113 58 235 91q192 45 326 45q51 0 75 -68v-28q0 -58 -78 -75h-53q-311 0 -523 -175q-93 -92 -93 -149q0 -134 366 -162l124 -2h2q578 24 751 139.5
t197 237.5t69 156q17 7 36 7zM718 -426q73 0 124 -96v-20q0 -49 -88 -68h-20q-76 0 -92 116q0 59 76 68zM1725 257.5q18 -65.5 86 -93.5q49 -5 68 -40.5t8.5 -68.5t-43.5 -47.5t-98 9t-110 94.5t-28 182.5t123 244.5t41 -41t-47 -239.5z" />
    <glyph glyph-name="uniFE91" unicode="&#x628;" horiz-adv-x="580" arabic-form="initial" 
d="M-6 1q-84 9 -79 78.5t76 80.5q171 3 249 73t97.5 203t73.5 167q0 6 30 7q107 -21 69 -161q-39 -184 -102 -262.5t-172 -138t-242 -47.5zM128 -319q73 0 124 -96v-20q0 -49 -88 -68h-20q-76 0 -92 116q0 59 76 68z" />
    <glyph glyph-name="uniFE92" unicode="&#x628;" horiz-adv-x="398" arabic-form="medial" 
d="M328 223.5q2 -50.5 71 -59.5q63 5 80 -73v-18q-16 -73 -83 -73q-165 -1 -182 122q-44 -68 -91 -95t-116 -30q-89 14 -83.5 88t80.5 86q118 0 180.5 186t97.5 223t78 24q83 -42 24 -162q-40 -109 -49 -138.5t-7 -80zM103 -346q73 0 124 -96v-20q0 -49 -88 -68h-20
q-76 0 -92 116q0 59 76 68z" />
    <glyph glyph-name="uni067E" unicode="&#x67e;" horiz-adv-x="1624" arabic-form="isolated" 
d="M1628 908q83 -12 83 -81q0 -361 -169 -518q-165 -157 -379 -235q-237 -83 -495 -83q-501 0 -614 210q-23 60 -23 98q0 183 268 349q113 58 235 91q192 45 326 45q51 0 75 -68v-28q0 -58 -78 -75h-53q-311 0 -523 -175q-93 -92 -93 -149q0 -134 366 -162l124 -2h2
q471 0 773 313q86 102 86 374q0 65 53 89q17 7 36 7zM731 -518q73 0 124 -96v-20q0 -49 -88 -68h-20q-76 0 -92 116q0 59 76 68zM1074 -218q35 0 52 -28l-26 -68q-9 -34 -590 -92h-8q-96 0 -96 52q0 66 108 88q151 24 560 48z" />
    <glyph glyph-name="uniFB57" unicode="&#x67e;" horiz-adv-x="1806" arabic-form="final" 
d="M1729 665q75 -4 83 -81q-111 -349 -320.5 -446t-389.5 -122t-438 -25q-501 0 -614 210q-23 60 -23 98q0 183 268 349q113 58 235 91q192 45 326 45q51 0 75 -68v-28q0 -58 -78 -75h-53q-311 0 -523 -175q-93 -92 -93 -149q0 -134 366 -162l124 -2h2q578 24 751 139.5
t197 237.5t69 156q17 7 36 7zM1725 257.5q18 -65.5 86 -93.5q49 -5 68 -40.5t8.5 -68.5t-43.5 -47.5t-98 9t-110 94.5t-28 182.5t123 244.5t41 -41t-47 -239.5zM727 -518q72 0 124 -96v-20q0 -49 -88 -68h-20q-76 0 -92 116q0 59 76 68zM1070 -218q35 0 52 -28l-26 -68
q-9 -34 -590 -92h-8q-96 0 -96 52q0 66 108 88q151 24 560 48z" />
    <glyph glyph-name="uniFB58" unicode="&#x67e;" horiz-adv-x="600" arabic-form="initial" 
d="M-5 1q-84 9 -79 78.5t76 80.5q170 3 248 73t97.5 203t73.5 167q0 6 30 7q107 -21 69 -161q-39 -184 -102 -262.5t-172 -138t-241 -47.5zM222 -485q73 0 124 -96v-20q0 -49 -88 -68h-20q-76 0 -92 116q0 59 76 68zM567 -227q35 0 52 -28l-26 -68q-9 -34 -590 -92h-8
q-96 0 -96 52q0 66 108 88q151 24 560 48z" />
    <glyph glyph-name="uniFB59" unicode="&#x67e;" horiz-adv-x="400" arabic-form="medial" 
d="M329 223.5q2 -50.5 71 -59.5q63 5 80 -73v-18q-16 -73 -83 -73q-165 -1 -182 122q-44 -68 -91.5 -95t-115.5 -30q-89 14 -83.5 88t80.5 86q118 0 180.5 186t97.5 223t78 24q83 -42 24 -162q-41 -109 -49.5 -138.5t-6.5 -80zM-21 -718q73 0 124 -96v-20q0 -49 -88 -68h-20
q-76 0 -92 116q0 58 76 68zM322 -418q35 0 52 -28l-26 -68q-9 -34 -590 -92h-8q-96 0 -96 52q0 66 108 88q152 24 560 48z" />
    <glyph glyph-name="uni062A" unicode="&#x62a;" horiz-adv-x="1628" arabic-form="isolated" 
d="M1628 908q83 -12 83 -81q0 -361 -169 -518q-165 -157 -379 -235q-237 -83 -495 -83q-501 0 -614 210q-23 60 -23 98q0 183 268 349q113 58 235 91q192 45 326 45q51 0 75 -68v-28q0 -58 -78 -75h-53q-311 0 -523 -175q-93 -92 -93 -149q0 -134 366 -162l124 -2h2
q471 0 773 313q86 102 86 374q0 65 53 89q17 7 36 7zM1496 1274q35 0 52 -28l-26 -68q-9 -35 -590 -92h-8q-96 0 -96 52q0 65 108 88q151 24 560 48z" />
    <glyph glyph-name="uniFE96" unicode="&#x62a;" horiz-adv-x="1802" arabic-form="final" 
d="M1725 665q75 -4 83 -81q-111 -349 -320.5 -446t-389.5 -122t-438 -25q-501 0 -614 210q-23 60 -23 98q0 183 268 349q113 58 235 91q192 45 326 45q51 0 75 -68v-28q0 -58 -78 -75h-53q-311 0 -523 -175q-93 -92 -93 -149q0 -134 366 -162l124 -2h2q578 24 751 139.5
t197 237.5t69 156q17 7 36 7zM1721 257.5q18 -65.5 86 -93.5q49 -5 68 -40.5t8.5 -68.5t-43.5 -47.5t-98 9t-110 94.5t-28 182.5t123 244.5t41 -41t-47 -239.5zM1496 1274q35 0 52 -28l-26 -68q-9 -35 -590 -92h-8q-96 0 -96 52q0 65 108 88q151 24 560 48z" />
    <glyph glyph-name="uniFE97" unicode="&#x62a;" horiz-adv-x="600" arabic-form="initial" 
d="M-6 1q-84 9 -79 78.5t76 80.5q171 3 249 73t97.5 203t73.5 167q0 6 30 7q107 -21 69 -161q-39 -184 -102 -262.5t-172 -138t-242 -47.5zM748 1199q26 0 38 -28l-19 -68q-6 -35 -429 -92h-6q-70 0 -70 52q0 65 79 88q109 24 407 48z" />
    <glyph glyph-name="uniFE98" unicode="&#x62a;" horiz-adv-x="400" arabic-form="medial" 
d="M328 223.5q2 -50.5 71 -59.5q63 5 80 -73v-18q-16 -73 -83 -73q-165 -1 -182 122q-44 -68 -91 -95t-116 -30q-89 14 -83.5 88t80.5 86q118 0 180.5 186t97.5 223t78 24q83 -42 24 -162q-40 -109 -49 -138.5t-7 -80zM669 951q26 0 38 -28l-19 -68q-6 -35 -350 -57h-6
q-70 0 -70 52q0 65 79 88z" />
    <glyph glyph-name="uni062B" unicode="&#x62b;" horiz-adv-x="1624" arabic-form="isolated" 
d="M1628 908q83 -12 83 -81q0 -361 -169 -518q-165 -157 -379 -235q-237 -83 -495 -83q-501 0 -614 210q-23 60 -23 98q0 183 268 349q113 58 235 91q192 45 326 45q51 0 75 -68v-28q0 -58 -78 -75h-53q-311 0 -523 -175q-93 -92 -93 -149q0 -134 366 -162l124 -2h2
q471 0 773 313q86 102 86 374q0 65 53 89q17 7 36 7zM1165 1558q73 0 124 -96v-20q0 -49 -88 -68h-20q-76 0 -92 116q0 58 76 68zM1478 1240q35 0 52 -28l-26 -68q-9 -35 -590 -92h-8q-96 0 -96 52q0 65 108 88q151 24 560 48z" />
    <glyph glyph-name="uniFE9A" unicode="&#x62b;" horiz-adv-x="1811" arabic-form="final" 
d="M1729 665q75 -4 83 -81q-111 -349 -320.5 -446t-389.5 -122t-438 -25q-501 0 -614 210q-23 60 -23 98q0 183 268 349q113 58 235 91q192 45 326 45q51 0 75 -68v-28q0 -58 -78 -75h-53q-311 0 -523 -175q-93 -92 -93 -149q0 -134 366 -162l124 -2h2q578 24 751 139.5
t197 237.5t69 156q17 7 36 7zM1725 257.5q18 -65.5 86 -93.5q49 -5 68 -40.5t8.5 -68.5t-43.5 -47.5t-98 9t-110 94.5t-28 182.5t123 244.5t41 -41t-47 -239.5zM1165 1558q73 0 124 -96v-20q0 -49 -88 -68h-20q-76 0 -92 116q0 58 76 68zM1478 1240q35 0 52 -28l-26 -68
q-9 -35 -590 -92h-8q-96 0 -96 52q0 65 108 88q151 24 560 48z" />
    <glyph glyph-name="uniFE9B" unicode="&#x62b;" horiz-adv-x="600" arabic-form="initial" 
d="M-6 1q-84 9 -79 78.5t76 80.5q171 3 249 73t97.5 203t73.5 167q0 6 30 7q107 -21 69 -161q-39 -184 -102 -262.5t-172 -138t-242 -47.5zM421 1451q73 0 124 -96v-20q0 -49 -88 -68h-20q-76 0 -92 116q0 58 76 68zM734 1133q35 0 52 -28l-26 -68q-9 -35 -590 -92h-8
q-96 0 -96 52q0 65 108 88q151 24 560 48z" />
    <glyph glyph-name="uniFE9C" unicode="&#x62b;" horiz-adv-x="400" arabic-form="medial" 
d="M328 223.5q2 -50.5 71 -59.5q63 5 80 -73v-18q-16 -73 -83 -73q-165 -1 -182 122q-44 -68 -91 -95t-116 -30q-89 14 -83.5 88t80.5 86q118 0 180.5 186t97.5 223t78 24q83 -42 24 -162q-40 -109 -49 -138.5t-7 -80zM336 1255q73 0 124 -96v-20q0 -49 -88 -68h-20
q-76 0 -92 116q0 58 76 68zM586 1011q35 0 52 -28l-26 -68q-9 -35 -447 -70h-8q-96 0 -96 52q0 65 108 88q151 24 417 26z" />
    <glyph glyph-name="uni062C" unicode="&#x62c;" horiz-adv-x="1397" arabic-form="isolated" 
d="M484 867q102 0 337 -180q32 -12 60 -12q31 0 110 36q34 7 65 7q147 0 258 -103q14 -18 14 -29v-5q0 -68 -84 -99l-31 -4q-92 0 -296 45h-12q-87 0 -443 -245q-117 -77 -298 -253q-238 -255 -238 -444v-29q0 -266 216 -385q146 -96 402 -93h5q237 9 536 83q22 12 22 20
l-9 16v20q8 33 29 33q97 -47 134 -115l2 -12q-2 -67 -241 -108q-286 -46 -447 -46h-19q-280 0 -505 109q-33 12 -144 120q-77 96 -94 187q-17 68 -17 152v36q0 378 534 767q191 148 334 231q24 9 24 28q-24 57 -156 116l-34 5h-7q-85 -15 -219 -197q-95 -186 -120 -205h-10
q-10 0 -12 51v31q0 148 41 192q33 74 197 226q64 53 116 53zM718 -298q73 0 124 -96v-20q0 -49 -88 -68h-20q-76 0 -92 116q0 59 76 68z" />
    <glyph glyph-name="uniFE9E" unicode="&#x62c;" horiz-adv-x="1283" arabic-form="final" 
d="M484 703q102 0 337 -180q32 -12 60 -12q31 0 110 36q34 7 65 7q147 0 258 -103q14 -18 14 -29v-5q0 -68 -84 -99l-31 -4q-92 0 -296 45h-12q-87 0 -443 -245q-117 -77 -298 -253q-238 -255 -238 -444v-29q0 -266 216 -385q146 -96 402 -93h5q237 9 536 83q22 12 22 20
l-9 16v20q8 33 29 33q97 -47 134 -115l2 -12q-2 -67 -241 -108q-286 -46 -447 -46h-19q-280 0 -505 109q-33 12 -144 120q-77 96 -94 187q-17 68 -17 152v36q0 378 534 767q191 148 334 231q24 9 24 28q-24 57 -156 116l-34 5h-7q-85 -15 -219 -197q-95 -186 -120 -205h-10
q-10 0 -12 51v31q0 148 41 192q33 74 197 226q64 53 116 53zM718 -462q73 0 124 -96v-20q0 -49 -88 -68h-20q-76 0 -92 116q0 58 76 68zM1092 304.5q21 -129.5 195 -141.5q49 -5 68 -40.5t8.5 -68.5t-43.5 -47t-127.5 6.5t-175 90t-83 195t46.5 147.5t69.5 5t41.5 -146.5z
" />
    <glyph glyph-name="uniFE9F" unicode="&#x62c;" horiz-adv-x="1000" arabic-form="initial" 
d="M375 727h2q89 0 204 -159q74 -95 90 -111q87 60 122 60h18q40 0 66 -53q6 -13 6 -29q0 -60 -74 -131q-49 -38 -95 -38l-36 9q-178 -107 -303 -165q-254 -105 -299 -105q-24 -5 -65 -5h-7q-51 0 -73 51l-4 22v11q0 50 61 71q91 0 199 50q197 75 371 183q-117 176 -186 176
q-46 -1 -178 -190q-34 -43 -55 -43q-25 0 -56 56l-4 25q0 76 119 192q113 123 177 123zM270 -315q73 0 124 -96v-20q0 -49 -88 -68h-20q-76 0 -92 116q0 59 76 68z" />
    <glyph glyph-name="uniFEA0" unicode="&#x62c;" horiz-adv-x="850" arabic-form="medial" 
d="M851 163q49 -5 68 -40.5t8.5 -68.5t-43.5 -47t-114 -4t-161 110.5t-59.5 170t59 71.5t53.5 -89t189 -103zM373 727h2q89 0 204 -159q74 -95 90 -111q87 60 122 60h18q40 0 66 -53q6 -13 6 -29q0 -60 -74 -131q-49 -38 -95 -38l-36 9q-168 -127 -292 -188.5t-229 -74
t-146 -12.5h-7q-51 0 -73 51l-4 22v11q0 50 61 71q172 3 310.5 59.5t259.5 173.5q-117 176 -186 176q-46 -1 -178 -190q-34 -43 -55 -43q-25 0 -56 56l-4 25q0 76 119 192q113 123 177 123zM292 -338q73 0 124 -96v-20q0 -49 -88 -68h-20q-76 0 -92 116q0 59 76 68z" />
    <glyph glyph-name="uni0686" unicode="&#x686;" horiz-adv-x="1400" arabic-form="isolated" 
d="M484 867q102 0 337 -180q32 -12 60 -12q31 0 110 36q34 7 65 7q147 0 258 -103q14 -18 14 -29v-5q0 -68 -84 -99l-31 -4q-92 0 -296 45h-12q-87 0 -443 -245q-117 -77 -298 -253q-238 -255 -238 -444v-29q0 -266 216 -385q146 -96 402 -93h5q237 9 536 83q22 12 22 20
l-9 16v20q8 33 29 33q97 -47 134 -115l2 -12q-2 -67 -241 -108q-286 -46 -447 -46h-19q-280 0 -505 109q-33 12 -144 120q-77 96 -94 187q-17 68 -17 152v36q0 378 534 767q191 148 334 231q24 9 24 28q-24 57 -156 116l-34 5h-7q-85 -15 -219 -197q-95 -186 -120 -205h-10
q-10 0 -12 51v31q0 148 41 192q33 74 197 226q64 53 116 53zM725 -300q72 0 124 -96v-20q0 -49 -88 -68h-20q-77 0 -92 116q0 58 76 68zM1068 0q34 0 52 -28l-26 -68q-9 -35 -590 -92h-8q-96 0 -96 52q0 65 108 88q151 24 560 48z" />
    <glyph glyph-name="uniFB7B" unicode="&#x686;" horiz-adv-x="1284" arabic-form="final" 
d="M484 703q102 0 337 -180q32 -12 60 -12q31 0 110 36q34 7 65 7q147 0 258 -103q14 -18 14 -29v-5q0 -68 -84 -99l-31 -4q-92 0 -296 45h-12q-87 0 -443 -245q-117 -77 -298 -253q-238 -255 -238 -444v-29q0 -266 216 -385q146 -96 402 -93h5q237 9 536 83q22 12 22 20
l-9 16v20q8 33 29 33q97 -47 134 -115l2 -12q-2 -67 -241 -108q-286 -46 -447 -46h-19q-280 0 -505 109q-33 12 -144 120q-77 96 -94 187q-17 68 -17 152v36q0 378 534 767q191 148 334 231q24 9 24 28q-24 57 -156 116l-34 5h-7q-85 -15 -219 -197q-95 -186 -120 -205h-10
q-10 0 -12 51v31q0 148 41 192q33 74 197 226q64 53 116 53zM1092 304.5q21 -129.5 195 -141.5q49 -5 68 -40.5t8.5 -68.5t-43.5 -47t-127.5 6.5t-175 90t-83 195t46.5 147.5t69.5 5t41.5 -146.5zM727 -459q73 0 124 -96v-20q0 -49 -88 -68h-20q-76 0 -92 116q0 59 76 68z
M1070 -159q35 0 52 -28l-26 -68q-9 -34 -590 -92h-8q-96 0 -96 52q0 66 108 88q151 24 560 48z" />
    <glyph glyph-name="uniFB7C" unicode="&#x686;" horiz-adv-x="1000" arabic-form="initial" 
d="M375 727h2q89 0 204 -159q74 -95 90 -111q87 60 122 60h18q40 0 66 -53q6 -13 6 -29q0 -60 -74 -131q-49 -38 -95 -38l-36 9q-178 -107 -303 -165q-254 -105 -299 -105q-24 -5 -65 -5h-7q-51 0 -73 51l-4 22v11q0 50 61 71q91 0 199 50q197 75 371 183q-117 176 -186 176
q-46 -1 -178 -190q-34 -43 -55 -43q-25 0 -56 56l-4 25q0 76 119 192q113 123 177 123zM432 -563q73 0 124 -96v-20q0 -49 -88 -68h-20q-76 0 -92 116q0 59 76 68zM775 -263q35 0 52 -28l-26 -68q-9 -34 -590 -92h-8q-96 0 -96 52q0 66 108 88q151 24 560 48z" />
    <glyph glyph-name="uniFB7D" unicode="&#x686;" horiz-adv-x="848" arabic-form="medial" 
d="M851 163q49 -5 68 -40.5t8.5 -68.5t-43.5 -47t-114 -4t-161 110.5t-59.5 170t59 71.5t53.5 -89t189 -103zM373 727h2q89 0 204 -159q74 -95 90 -111q87 60 122 60h18q40 0 66 -53q6 -13 6 -29q0 -60 -74 -131q-49 -38 -95 -38l-36 9q-168 -127 -292 -188.5t-229 -74
t-146 -12.5h-7q-51 0 -73 51l-4 22v11q0 50 61 71q172 3 310.5 59.5t259.5 173.5q-117 176 -186 176q-46 -1 -178 -190q-34 -43 -55 -43q-25 0 -56 56l-4 25q0 76 119 192q113 123 177 123zM397 -641q73 0 124 -96v-20q0 -49 -88 -68h-20q-76 0 -92 116q0 59 76 68z
M740 -341q35 0 52 -28l-26 -68q-9 -34 -590 -92h-8q-96 0 -96 52q0 66 108 88q151 24 560 48z" />
    <glyph glyph-name="uni062D" unicode="&#x62d;" horiz-adv-x="1400" arabic-form="isolated" 
d="M484 867q102 0 337 -180q32 -12 60 -12q31 0 110 36q34 7 65 7q147 0 258 -103q14 -18 14 -29v-5q0 -68 -84 -99l-31 -4q-92 0 -296 45h-12q-87 0 -443 -245q-117 -77 -298 -253q-238 -255 -238 -444v-29q0 -266 216 -385q146 -96 402 -93h5q237 9 536 83q22 12 22 20
l-9 16v20q8 33 29 33q97 -47 134 -115l2 -12q-2 -67 -241 -108q-286 -46 -447 -46h-19q-280 0 -505 109q-33 12 -144 120q-77 96 -94 187q-17 68 -17 152v36q0 378 534 767q191 148 334 231q24 9 24 28q-24 57 -156 116l-34 5h-7q-85 -15 -219 -197q-95 -186 -120 -205h-10
q-10 0 -12 51v31q0 148 41 192q33 74 197 226q64 53 116 53z" />
    <glyph glyph-name="uniFEA2" unicode="&#x62d;" horiz-adv-x="1288" arabic-form="final" 
d="M484 703q102 0 337 -180q32 -12 60 -12q31 0 110 36q34 7 65 7q147 0 258 -103q14 -18 14 -29v-5q0 -68 -84 -99l-31 -4q-92 0 -296 45h-12q-87 0 -443 -245q-117 -77 -298 -253q-238 -255 -238 -444v-29q0 -266 216 -385q146 -96 402 -93h5q237 9 536 83q22 12 22 20
l-9 16v20q8 33 29 33q97 -47 134 -115l2 -12q-2 -67 -241 -108q-286 -46 -447 -46h-19q-280 0 -505 109q-33 12 -144 120q-77 96 -94 187q-17 68 -17 152v36q0 378 534 767q191 148 334 231q24 9 24 28q-24 57 -156 116l-34 5h-7q-85 -15 -219 -197q-95 -186 -120 -205h-10
q-10 0 -12 51v31q0 148 41 192q33 74 197 226q64 53 116 53zM1092 304.5q21 -129.5 195 -141.5q49 -5 68 -40.5t8.5 -68.5t-43.5 -47t-127.5 6.5t-175 90t-83 195t46.5 147.5t69.5 5t41.5 -146.5z" />
    <glyph glyph-name="uniFEA3" unicode="&#x62d;" horiz-adv-x="1000" arabic-form="initial" 
d="M375 727h2q89 0 204 -159q74 -95 90 -111q87 60 122 60h18q40 0 66 -53q6 -13 6 -29q0 -60 -74 -131q-49 -38 -95 -38l-36 9q-178 -107 -303 -165q-254 -105 -299 -105q-24 -5 -65 -5h-7q-51 0 -73 51l-4 22v11q0 50 61 71q91 0 199 50q197 75 371 183q-117 176 -186 176
q-46 -1 -178 -190q-34 -43 -55 -43q-25 0 -56 56l-4 25q0 76 119 192q113 123 177 123z" />
    <glyph glyph-name="uniFEA4" unicode="&#x62d;" horiz-adv-x="848" arabic-form="medial" 
d="M851 163q49 -5 68 -40.5t8.5 -68.5t-43.5 -47t-114 -4t-161 110.5t-59.5 170t59 71.5t53.5 -89t189 -103zM373 727h2q89 0 204 -159q74 -95 90 -111q87 60 122 60h18q40 0 66 -53q6 -13 6 -29q0 -60 -74 -131q-49 -38 -95 -38l-36 9q-168 -127 -292 -188.5t-229 -74
t-146 -12.5h-7q-51 0 -73 51l-4 22v11q0 50 61 71q172 3 310.5 59.5t259.5 173.5q-117 176 -186 176q-46 -1 -178 -190q-34 -43 -55 -43q-25 0 -56 56l-4 25q0 76 119 192q113 123 177 123z" />
    <glyph glyph-name="uni062E" unicode="&#x62e;" horiz-adv-x="1400" arabic-form="isolated" 
d="M484 867q102 0 337 -180q32 -12 60 -12q31 0 110 36q34 7 65 7q147 0 258 -103q14 -18 14 -29v-5q0 -68 -84 -99l-31 -4q-92 0 -296 45h-12q-87 0 -443 -245q-117 -77 -298 -253q-238 -255 -238 -444v-29q0 -266 216 -385q146 -96 402 -93h5q237 9 536 83q22 12 22 20
l-9 16v20q8 33 29 33q97 -47 134 -115l2 -12q-2 -67 -241 -108q-286 -46 -447 -46h-19q-280 0 -505 109q-33 12 -144 120q-77 96 -94 187q-17 68 -17 152v36q0 378 534 767q191 148 334 231q24 9 24 28q-24 57 -156 116l-34 5h-7q-85 -15 -219 -197q-95 -186 -120 -205h-10
q-10 0 -12 51v31q0 148 41 192q33 74 197 226q64 53 116 53zM479 1578q73 0 124 -96v-20q0 -49 -88 -68h-20q-76 0 -92 116q0 58 76 68z" />
    <glyph glyph-name="uniFEA6" unicode="&#x62e;" horiz-adv-x="1284" arabic-form="final" 
d="M484 703q102 0 337 -180q32 -12 60 -12q31 0 110 36q34 7 65 7q147 0 258 -103q14 -18 14 -29v-5q0 -68 -84 -99l-31 -4q-92 0 -296 45h-12q-87 0 -443 -245q-117 -77 -298 -253q-238 -255 -238 -444v-29q0 -266 216 -385q146 -96 402 -93h5q237 9 536 83q22 12 22 20
l-9 16v20q8 33 29 33q97 -47 134 -115l2 -12q-2 -67 -241 -108q-286 -46 -447 -46h-19q-280 0 -505 109q-33 12 -144 120q-77 96 -94 187q-17 68 -17 152v36q0 378 534 767q191 148 334 231q24 9 24 28q-24 57 -156 116l-34 5h-7q-85 -15 -219 -197q-95 -186 -120 -205h-10
q-10 0 -12 51v31q0 148 41 192q33 74 197 226q64 53 116 53zM1092 304.5q21 -129.5 195 -141.5q49 -5 68 -40.5t8.5 -68.5t-43.5 -47t-127.5 6.5t-175 90t-83 195t46.5 147.5t69.5 5t41.5 -146.5zM430 1326q73 0 124 -96v-20q0 -49 -88 -68h-20q-76 0 -92 116q0 58 76 68z
" />
    <glyph glyph-name="uniFEA7" unicode="&#x62e;" horiz-adv-x="1000" arabic-form="initial" 
d="M375 727h2q89 0 204 -159q74 -95 90 -111q87 60 122 60h18q40 0 66 -53q6 -13 6 -29q0 -60 -74 -131q-49 -38 -95 -38l-36 9q-178 -107 -303 -165q-254 -105 -299 -105q-24 -5 -65 -5h-7q-51 0 -73 51l-4 22v11q0 50 61 71q91 0 199 50q197 75 371 183q-117 176 -186 176
q-46 -1 -178 -190q-34 -43 -55 -43q-25 0 -56 56l-4 25q0 76 119 192q113 123 177 123zM356 1223q73 0 124 -96v-20q0 -49 -88 -68h-20q-76 0 -92 116q0 58 76 68z" />
    <glyph glyph-name="uniFEA8" unicode="&#x62e;" horiz-adv-x="852" arabic-form="medial" 
d="M851 163q49 -5 68 -40.5t8.5 -68.5t-43.5 -47t-114 -4t-161 110.5t-59.5 170t59 71.5t53.5 -89t189 -103zM373 727h2q89 0 204 -159q74 -95 90 -111q87 60 122 60h18q40 0 66 -53q6 -13 6 -29q0 -60 -74 -131q-49 -38 -95 -38l-36 9q-168 -127 -292 -188.5t-229 -74
t-146 -12.5h-7q-51 0 -73 51l-4 22v11q0 50 61 71q172 3 310.5 59.5t259.5 173.5q-117 176 -186 176q-46 -1 -178 -190q-34 -43 -55 -43q-25 0 -56 56l-4 25q0 76 119 192q113 123 177 123zM395 1178q73 0 124 -96v-20q0 -49 -88 -68h-20q-76 0 -92 116q0 58 76 68z" />
    <glyph glyph-name="uni062F" unicode="&#x62f;" horiz-adv-x="701" arabic-form="isolated" 
d="M366 757h5q59 0 100 -103q103 -181 103 -347q0 -169 -126 -272q-114 -101 -281 -186q-253 -119 -303 -119q-76 14 -76 69v20q0 60 99 73q153 49 267 109q120 61 244 175q46 53 46 117v2q0 114 -149 359l-4 27q12 76 75 76z" />
    <glyph glyph-name="uniFEAA" unicode="&#x62f;" horiz-adv-x="719" arabic-form="final" 
d="M737 752.5q27 -41.5 -37.5 -209.5t-53 -274.5t63.5 -112.5q56 0 75 -58l2 -14v-11q0 -48 -58 -70l-19 -2q-109 0 -151 59.5t-36 178.5h-2q-123 -185 -241 -266q-101 -76 -184 -118q-66 -34 -84 -34h-17q-60 0 -87 57l-2 18v8q0 56 85 85q136 65 212.5 126.5t184 194
t170 297.5t107.5 176t72 -30.5z" />
    <glyph glyph-name="uni0630" unicode="&#x630;" horiz-adv-x="696" arabic-form="isolated" 
d="M365 701h5q59 0 100 -103q103 -181 103 -347q0 -169 -126 -272q-114 -102 -281 -187q-253 -119 -303 -119q-76 14 -76 69v20q0 60 99 73q153 49 267 110q120 61 244 175q46 53 46 117v2q0 114 -149 359l-4 27q12 76 75 76zM342 1325q73 0 124 -96v-20q0 -49 -88 -68h-20
q-76 0 -92 116q0 58 76 68z" />
    <glyph glyph-name="uniFEAC" unicode="&#x630;" horiz-adv-x="717" arabic-form="final" 
d="M741 752.5q27 -41.5 -37.5 -209.5t-53 -274.5t63.5 -112.5q56 0 75 -58l2 -14v-11q0 -48 -58 -70l-19 -2q-109 0 -151 59.5t-36 178.5h-2q-123 -185 -241 -266q-101 -76 -184 -118q-66 -34 -84 -34h-17q-60 0 -87 57l-2 18v8q0 56 85 85q136 65 212.5 126.5t184 194
t170 297.5t107.5 176t72 -30.5zM577 1490q73 0 124 -96v-20q0 -49 -88 -68h-20q-76 0 -92 116q0 58 76 68z" />
    <glyph glyph-name="uni0631" unicode="&#x631;" horiz-adv-x="553" arabic-form="isolated" 
d="M554 579q44 0 69 -45q7 -14 7 -31v-3q0 -26 -30 -69q-55 -93 -119 -188q-41 -72 -131 -178q-161 -211 -396 -475q-104 -114 -185 -199q-38 -43 -51 -43q-12 -6 -31 -6q-46 0 -70 50q-5 13 -5 24v6q0 36 44 73q0 3 169 168q178 179 224 239q131 154 222 290
q116 174 219 356q25 31 64 31z" />
    <glyph glyph-name="uniFEAE" unicode="&#x631;" horiz-adv-x="511" arabic-form="final" 
d="M502 585q45 0 70 -45q7 -15 7 -32v-3q0 -26 -27 -95t-51.5 -123t-8.5 -88t57.5 -46.5t45.5 -74.5q0 -49 -50 -72q-14 -4 -25 -4h-10q-121 8 -138 104q-163 -244 -425 -524q-106 -116 -188 -203q-39 -43 -52 -43q-12 -7 -31 -7q-47 0 -71 51q-6 14 -6 25v6q0 36 45 74
q0 3 172 171q181 182 227 243q133 156 226 294q107 166 142.5 285.5t90.5 106.5z" />
    <glyph glyph-name="uni0632" unicode="&#x632;" horiz-adv-x="540" arabic-form="isolated" 
d="M554 579q44 0 69 -45q7 -14 7 -31v-3q0 -26 -30 -69q-55 -93 -119 -188q-41 -72 -131 -178q-161 -211 -396 -475q-104 -114 -185 -199q-38 -43 -51 -43q-12 -6 -31 -6q-46 0 -70 50q-5 13 -5 24v6q0 36 44 73q0 3 169 168q178 179 224 239q131 154 222 290
q116 174 219 356q25 31 64 31zM594 1399q73 0 124 -96v-20q0 -49 -88 -68h-20q-76 0 -92 116q0 58 76 68z" />
    <glyph glyph-name="uniFEB0" unicode="&#x632;" horiz-adv-x="517" arabic-form="final" 
d="M506 585q45 0 70 -45q7 -15 7 -32v-3q0 -26 -27 -95t-51.5 -123t-8.5 -88t57.5 -46.5t45.5 -74.5q0 -49 -50 -72q-14 -4 -25 -4h-10q-121 8 -138 104q-163 -244 -425 -524q-106 -116 -188 -203q-39 -43 -52 -43q-12 -7 -31 -7q-47 0 -71 51q-6 14 -6 25v6q0 36 45 74
q0 3 172 171q181 182 227 243q133 156 226 294q107 166 142.5 285.5t90.5 106.5zM516 1329q73 0 124 -96v-20q0 -49 -88 -68h-20q-76 0 -92 116q0 58 76 68z" />
    <glyph glyph-name="uni0698" unicode="&#x698;" horiz-adv-x="536" arabic-form="isolated" 
d="M550 579q44 0 69 -45q7 -14 7 -31v-3q0 -26 -30 -69q-55 -93 -119 -188q-41 -72 -131 -178q-161 -211 -396 -475q-104 -114 -185 -199q-38 -43 -51 -43q-12 -6 -31 -6q-46 0 -70 50q-5 13 -5 24v6q0 36 44 73q0 3 169 168q178 179 224 239q131 154 222 290
q116 174 219 356q25 31 64 31zM600 1756q73 0 124 -96v-20q0 -49 -88 -68h-20q-76 0 -92 116q0 58 76 68zM913 1438q35 0 52 -28l-26 -68q-9 -35 -590 -92h-8q-96 0 -96 52q0 65 108 88q151 24 560 48z" />
    <glyph glyph-name="uniFB8B" unicode="&#x698;" horiz-adv-x="517" arabic-form="final" 
d="M506 585q45 0 70 -45q7 -15 7 -32v-3q0 -26 -27 -95t-51.5 -123t-8.5 -88t57.5 -46.5t45.5 -74.5q0 -49 -50 -72q-14 -4 -25 -4h-10q-121 8 -138 104q-163 -244 -425 -524q-106 -116 -188 -203q-39 -43 -52 -43q-12 -7 -31 -7q-47 0 -71 51q-6 14 -6 25v6q0 36 45 74
q0 3 172 171q181 182 227 243q133 156 226 294q107 166 142.5 285.5t90.5 106.5zM604 1525q73 0 124 -96v-20q0 -49 -88 -68h-20q-76 0 -92 116q0 58 76 68zM917 1207q35 0 52 -28l-26 -68q-9 -35 -590 -92h-8q-96 0 -96 52q0 65 108 88q151 24 560 48z" />
    <glyph glyph-name="uni0633" unicode="&#x633;" horiz-adv-x="3104" arabic-form="isolated" 
d="M1279 1454q101 -16 101 -94v-12q0 -57 -68 -106l-33 -8q-46 0 -70 43q-199 -18 -366 -61q-171 -49 -280 -108q-95 -52 -186 -141q-180 -189 -180 -394v-5q0 -237 177 -411q268 -216 673 -216q458 0 860 279q132 99 172 227l2 18q-20 100 -20 134v20q0 79 45 101
q29 12 43 12q99 0 99 -196v-13l-3 -30l111 -8q249 0 560 83q88 -13 88 -85q0 -85 -146 -104q-266 -63 -492 -63q-99 0 -169 18q-149 -286 -608 -471q-230 -78 -441 -78h-68q-398 0 -749 244q-114 89 -181 184q-124 179 -124 355q0 250 189 477q120 127 169 151
q143 102 356 169q144 43 350 73q147 16 189 16z" />
    <glyph glyph-name="uniFEB2" unicode="&#x633;" horiz-adv-x="3182" arabic-form="final" 
d="M1326 1111q101 -15 101 -93v-12q0 -57 -68 -106l-33 -8q-46 0 -70 43q-199 -18 -366 -61q-171 -49 -280 -108q-95 -52 -186 -141q-180 -189 -180 -394v-5q0 -236 177 -409q268 -217 673 -217q458 0 860 279q136 99 176 246l7 35q-24 47 -25 117v20q0 79 45 101
q29 12 43 12q99 0 100 -188q36 -62 208 -59.5t678 4.5q95 -3 95 -75q0 -85 -93 -92q-856 -55 -938 26q-155 -319 -614 -504q-230 -78 -441 -78h-68q-398 0 -749 244q-114 89 -181 184q-124 178 -124 354q0 250 189 477q120 127 169 151q143 102 356 169q144 43 350 73
q147 15 189 15z" />
    <glyph glyph-name="uniFEB3" unicode="&#x633;" horiz-adv-x="1310" arabic-form="initial" 
d="M940 374q178 146 212 -7v-3q5 -66 -171.5 -174t-466 -163t-435.5 -41t-146 47q-23 21 -23 53q14 76 77 76q218 -41 496.5 12.5t456.5 199.5z" />
    <glyph glyph-name="uniFEB4" unicode="&#x633;" horiz-adv-x="1104" arabic-form="medial" 
d="M1144 156v-156q-575 -47 -1164 0v156q591 -38 1164 0z" />
    <glyph glyph-name="uni0634" unicode="&#x634;" horiz-adv-x="3104" arabic-form="isolated" 
d="M1279 1454q101 -16 101 -94v-12q0 -57 -68 -106l-33 -8q-46 0 -70 43q-199 -18 -366 -61q-171 -49 -280 -108q-95 -52 -186 -141q-180 -189 -180 -394v-5q0 -237 177 -411q268 -216 673 -216q458 0 860 279q132 99 172 227l2 18q-20 100 -20 134v20q0 79 45 101
q29 12 43 12q99 0 99 -196v-13l-3 -30l111 -8q249 0 560 83q88 -13 88 -85q0 -85 -146 -104q-266 -63 -492 -63q-99 0 -169 18q-149 -286 -608 -471q-230 -78 -441 -78h-68q-398 0 -749 244q-114 89 -181 184q-124 179 -124 355q0 250 189 477q120 127 169 151
q143 102 356 169q144 43 350 73q147 16 189 16zM2584 1752q73 0 124 -96v-20q0 -49 -88 -68h-20q-76 0 -92 116q0 58 76 68zM2897 1312q35 0 52 -28l-26 -68q-9 -35 -590 -92h-8q-96 0 -96 52q0 65 108 88q151 24 560 48z" />
    <glyph glyph-name="uniFEB6" unicode="&#x634;" horiz-adv-x="3178" arabic-form="final" 
d="M1322 1111q101 -15 101 -93v-12q0 -57 -68 -106l-33 -8q-46 0 -70 43q-199 -18 -366 -61q-171 -49 -280 -108q-95 -52 -186 -141q-180 -189 -180 -394v-5q0 -236 177 -409q268 -217 673 -217q458 0 860 279q136 99 176 246l7 35q-24 47 -25 117v20q0 79 45 101
q29 12 43 12q99 0 100 -188q36 -62 208 -59.5t678 4.5q95 -3 95 -75q0 -85 -93 -92q-856 -55 -938 26q-155 -319 -614 -504q-230 -78 -441 -78h-68q-398 0 -749 244q-114 89 -181 184q-124 178 -124 354q0 250 189 477q120 127 169 151q143 102 356 169q144 43 350 73
q147 15 189 15zM2828 1508q73 0 124 -96v-20q0 -49 -88 -68h-20q-76 0 -92 116q0 58 76 68zM3141 1068q35 0 52 -28l-26 -68q-9 -35 -590 -92h-8q-96 0 -96 52q0 65 108 88q151 24 560 48z" />
    <glyph glyph-name="uniFEB7" unicode="&#x634;" horiz-adv-x="1297" arabic-form="initial" 
d="M717 1509q73 0 124 -96v-20q0 -49 -88 -68h-20q-76 0 -92 116q0 58 76 68zM1026 1043q35 0 52 -28l-26 -68q-9 -35 -590 -92h-8q-96 0 -96 52q0 65 108 88q151 24 560 48zM940 374q178 146 212 -7v-3q5 -66 -171.5 -174t-466 -163t-435.5 -41t-146 47q-23 21 -23 53
q14 76 77 76q218 -41 496.5 12.5t456.5 199.5z" />
    <glyph glyph-name="uniFEB8" unicode="&#x634;" horiz-adv-x="1083" arabic-form="medial" 
d="M1128 155v-155q-575 -48 -1164 0v156q591 -38 1164 -1zM600 1296q73 0 124 -96v-20q0 -49 -88 -68h-20q-76 0 -92 116q0 58 76 68zM909 830q35 0 52 -28l-26 -68q-9 -35 -590 -92h-8q-96 0 -96 52q0 65 108 88q151 24 560 48z" />
    <glyph glyph-name="uni0635" unicode="&#x635;" horiz-adv-x="2916" arabic-form="isolated" 
d="M1225 1013h58q73 0 86 -65v-17q-16 -69 -62 -69h-92q-503 0 -924 -328q-143 -130 -143 -277q0 -233 318 -390q162 -58 352 -58h75q366 0 770 260q189 129 270 349l14 44q-21 57 -21 127q8 167 52 167q0 11 48 17q92 -16 92 -119l3 -35l-13 -136q17 -35 48 -35
q31 69 232 267q239 202 421 202q138 0 175 -137l3 -34v-24q0 -171 -311 -359q-178 -93 -377 -93h-3q-48 0 -92 18q-87 -147 -93 -148h-3q-48 17 -48 86v7q0 36 24 85l-28 14q-105 -289 -431 -472q-323 -177 -691 -177q-650 0 -875 351q-62 107 -62 233q0 397 708 664
q258 82 520 82zM2282 418v-4h17q258 0 445 181q96 91 96 137q0 35 -27 35h-11q-146 0 -479 -298z" />
    <glyph glyph-name="uniFEBA" unicode="&#x635;" horiz-adv-x="3060" arabic-form="final" 
d="M1326 747h58q73 0 86 -65v-17q-16 -69 -62 -69h-92q-503 0 -924 -328q-143 -130 -143 -277q0 -233 318 -390q162 -58 352 -58h75q366 0 770 260q189 130 270 349l14 44q-21 57 -21 127q8 167 52 167q0 11 48 17q92 -16 92 -119l3 -35l-13 -136q17 -35 48 -35
q31 69 232 267q239 202 421 202q138 0 175 -137l3 -34v-24q0 -171 -311 -359q-178 -93 -377 -93h-3q-48 0 -92 18q-87 -147 -93 -147h-3q-48 16 -48 86v6q0 36 24 85l-28 14q-105 -289 -431 -472q-323 -177 -691 -177q-650 0 -875 352q-62 106 -62 232q0 397 708 664
q258 82 520 82zM2383 152v-4h17q258 0 445 181q96 91 96 137q0 35 -27 35h-11q-146 0 -479 -298zM3059 158q49 -5 68 -40.5t1 -71t-43.5 -44t-92 0t-116.5 45t-70 80.5t32 93t67 21t38.5 -56.5t115.5 -27.5z" />
    <glyph glyph-name="uniFEBB" unicode="&#x635;" horiz-adv-x="1300" arabic-form="initial" 
d="M951 670q141 0 183 -128q10 -33 10 -62q0 -182 -288 -367q-203 -122 -444 -122q-38 0 -95 18l-91 -151q-5 -5 -11 -5q-23 0 -44 64l-4 31q2 44 27 93q-6 0 -31 15q-44 -56 -114 -56l-35 -1h-20q-54 0 -72 51q-4 12 -4 20v10q0 35 51 58q54 5 54 12q17 10 23 40.5
t16.5 106.5t37 139t86.5 66.5t80 -52t-3.5 -120.5t-48.5 -114q10 -26 35 -38l17 -4q38 63 146 182q94 96 151 141q223 173 388 173zM397 142v-1l33 -1q260 0 458 191q74 64 94 116q6 17 6 29v7q0 31 -28 31h-12q-126 0 -407 -227q-99 -83 -144 -145z" />
    <glyph glyph-name="uniFEBC" unicode="&#x635;" horiz-adv-x="1104" arabic-form="medial" 
d="M1094 158q49 -5 68 -40.5t1 -71t-43.5 -44t-92 0t-116.5 45t-70 80.5t32 93t67 21t38.5 -56.5t115.5 -27.5zM955 670q141 0 183 -128q10 -33 10 -62q0 -182 -288 -367q-203 -122 -444 -122q-38 0 -95 18l-91 -151q-5 -5 -11 -5q-23 0 -44 64l-4 31q2 44 27 93
q-6 0 -31 15q-44 -56 -114 -56l-35 -1h-20q-54 0 -72 51q-4 12 -4 20v10q0 35 51 58q54 5 54 12q17 10 23 40.5t16.5 106.5t37 139t86.5 66.5t80 -52t-3.5 -120.5t-48.5 -114q10 -26 35 -38l17 -4q38 63 146 182q94 96 151 141q223 173 388 173zM401 142v-1l33 -1
q260 0 458 191q74 64 94 116q6 17 6 29v7q0 31 -28 31h-12q-126 0 -407 -227q-99 -83 -144 -145z" />
    <glyph glyph-name="uni0636" unicode="&#x636;" horiz-adv-x="2902" arabic-form="isolated" 
d="M1228 1013h58q73 0 86 -65v-17q-16 -69 -62 -69h-92q-503 0 -924 -328q-143 -130 -143 -277q0 -233 318 -390q162 -58 352 -58h75q366 0 770 260q189 129 270 349l14 44q-21 57 -21 127q8 167 52 167q0 11 48 17q92 -16 92 -119l3 -35l-13 -136q17 -35 48 -35
q31 69 232 267q239 202 421 202q138 0 175 -137l3 -34v-24q0 -171 -311 -359q-178 -93 -377 -93h-3q-48 0 -92 18q-87 -147 -93 -148h-3q-48 17 -48 86v7q0 36 24 85l-28 14q-105 -289 -431 -472q-323 -177 -691 -177q-650 0 -875 351q-62 107 -62 233q0 397 708 664
q258 82 520 82zM2285 418v-4h17q258 0 445 181q96 91 96 137q0 35 -27 35h-11q-146 0 -479 -298zM2395 1386q73 0 124 -96v-20q0 -49 -88 -68h-20q-76 0 -92 116q0 58 76 68z" />
    <glyph glyph-name="uniFEBE" unicode="&#x636;" horiz-adv-x="3061" arabic-form="final" 
d="M1330 747h58q73 0 86 -65v-17q-16 -69 -62 -69h-92q-503 0 -924 -328q-143 -130 -143 -277q0 -233 318 -390q162 -58 352 -58h75q366 0 770 260q189 130 270 349l14 44q-21 57 -21 127q8 167 52 167q0 11 48 17q92 -16 92 -119l3 -35l-13 -136q17 -35 48 -35
q31 69 232 267q239 202 421 202q138 0 175 -137l3 -34v-24q0 -171 -311 -359q-178 -93 -377 -93h-3q-48 0 -92 18q-87 -147 -93 -147h-3q-48 16 -48 86v6q0 36 24 85l-28 14q-105 -289 -431 -472q-323 -177 -691 -177q-650 0 -875 352q-62 106 -62 232q0 397 708 664
q258 82 520 82zM2387 152v-4h17q258 0 445 181q96 91 96 137q0 35 -27 35h-11q-146 0 -479 -298zM3063 158q49 -5 68 -40.5t1 -71t-43.5 -44t-92 0t-116.5 45t-70 80.5t32 93t67 21t38.5 -56.5t115.5 -27.5zM2399 1265q73 0 124 -96v-20q0 -49 -88 -68h-20q-76 0 -92 116
q0 58 76 68z" />
    <glyph glyph-name="uniFEBF" unicode="&#x636;" horiz-adv-x="1300" arabic-form="initial" 
d="M947 670q141 0 183 -128q10 -33 10 -62q0 -182 -288 -367q-203 -122 -444 -122q-38 0 -95 18l-91 -151q-5 -5 -11 -5q-23 0 -44 64l-4 31q2 44 27 93q-6 0 -31 15q-44 -56 -114 -56l-35 -1h-20q-54 0 -72 51q-4 12 -4 20v10q0 35 51 58q54 5 54 12q17 10 23 40.5
t16.5 106.5t37 139t86.5 66.5t80 -52t-3.5 -120.5t-48.5 -114q10 -26 35 -38l17 -4q38 63 146 182q94 96 151 141q223 173 388 173zM393 142v-1l33 -1q260 0 458 191q74 64 94 116q6 17 6 29v7q0 31 -28 31h-12q-126 0 -407 -227q-99 -83 -144 -145zM612 1295q73 0 124 -96
v-20q0 -49 -88 -68h-20q-76 0 -92 116q0 58 76 68z" />
    <glyph glyph-name="uniFEC0" unicode="&#x636;" horiz-adv-x="1100" arabic-form="medial" 
d="M1094 158q49 -5 68 -40.5t1 -71t-43.5 -44t-92 0t-116.5 45t-70 80.5t32 93t67 21t38.5 -56.5t115.5 -27.5zM955 670q141 0 183 -128q10 -33 10 -62q0 -182 -288 -367q-203 -122 -444 -122q-38 0 -95 18l-91 -151q-5 -5 -11 -5q-23 0 -44 64l-4 31q2 44 27 93
q-6 0 -31 15q-44 -56 -114 -56l-35 -1h-20q-54 0 -72 51q-4 12 -4 20v10q0 35 51 58q54 5 54 12q17 10 23 40.5t16.5 106.5t37 139t86.5 66.5t80 -52t-3.5 -120.5t-48.5 -114q10 -26 35 -38l17 -4q38 63 146 182q94 96 151 141q223 173 388 173zM401 142v-1l33 -1
q260 0 458 191q74 64 94 116q6 17 6 29v7q0 31 -28 31h-12q-126 0 -407 -227q-99 -83 -144 -145zM691 1352q73 0 124 -96v-20q0 -49 -88 -68h-20q-76 0 -92 116q0 58 76 68z" />
    <glyph glyph-name="uni0637" unicode="&#x637;" horiz-adv-x="1053" arabic-form="isolated" 
d="M826 1683q57 0 79 -62v-24q-100 -468 -128 -814l-5 -57h2q94 57 162 57q101 0 140 -112l5 -40q18 -347 -213.5 -495.5t-594.5 -135.5q-163 -2 -163 10q-39 28 -39 66q12 81 77 81l99 3v22q0 38 164 228q149 157 202 197l-7 31q0 166 73 636q50 275 78 373q30 36 69 36z
M432 182h3q156 -28 317 71t179 242.5t-57 114.5t-246 -193q-158 -173 -196 -235z" />
    <glyph glyph-name="uniFEC2" unicode="&#x637;" horiz-adv-x="1049" arabic-form="final" 
d="M1048 164q49 -5 68 -40.5t1 -71t-43.5 -44t-92 0t-116.5 45t-70 80.5t32 93t67 21t38.5 -56.5t115.5 -27.5zM826 1683q57 0 79 -62v-24q-100 -468 -128 -814l-5 -57h2q94 57 162 57q101 0 140 -112l5 -40q18 -347 -213.5 -495.5t-594.5 -135.5q-163 -2 -163 10
q-39 28 -39 66q12 81 77 81l99 3v22q0 38 164 228q149 157 202 197l-7 31q0 166 73 636q50 275 78 373q30 36 69 36zM432 182h3q156 -28 317 71t179 242.5t-57 114.5t-246 -193q-158 -173 -196 -235z" />
    <glyph glyph-name="uniFEC3" unicode="&#x637;" horiz-adv-x="1055" arabic-form="initial" 
d="M675 1683q57 0 79 -62v-24q-100 -468 -128 -814l-5 -57h2q94 57 162 57q101 0 140 -112l5 -40q18 -347 -213.5 -495.5t-594.5 -135.5q-163 -2 -163 10q-39 28 -39 66q12 81 77 81l99 3v22q0 38 164 228q149 157 202 197l-7 31q0 166 73 636q50 275 78 373q30 36 69 36z
M281 182h3q156 -28 317 71t179 242.5t-57 114.5t-246 -193q-158 -173 -196 -235z" />
    <glyph glyph-name="uniFEC4" unicode="&#x637;" horiz-adv-x="902" arabic-form="medial" 
d="M897 164q49 -5 68 -40.5t1 -71t-43.5 -44t-92 0t-116.5 45t-70 80.5t32 93t67 21t38.5 -56.5t115.5 -27.5zM675 1683q57 0 79 -62v-24q-100 -468 -128 -814l-5 -57h2q94 57 162 57q101 0 140 -112l5 -40q18 -347 -213.5 -495.5t-594.5 -135.5q-163 -2 -163 10
q-39 28 -39 66q12 81 77 81l99 3v22q0 38 164 228q149 157 202 197l-7 31q0 166 73 636q50 275 78 373q30 36 69 36zM281 182h3q156 -28 317 71t179 242.5t-57 114.5t-246 -193q-158 -173 -196 -235z" />
    <glyph glyph-name="uni0638" unicode="&#x638;" horiz-adv-x="1080" arabic-form="isolated" 
d="M848 1683q57 0 79 -62v-24q-100 -468 -128 -814l-5 -57h2q94 57 162 57q101 0 140 -112l5 -40q18 -347 -213.5 -495.5t-594.5 -135.5q-163 -2 -163 10q-39 28 -39 66q12 81 77 81l99 3v22q0 38 164 228q149 157 202 197l-7 31q0 166 73 636q50 275 78 373q30 36 69 36z
M454 182h3q156 -28 317 71t179 242.5t-57 114.5t-246 -193q-158 -173 -196 -235zM1036 1499q73 0 124 -96v-20q0 -49 -88 -68h-20q-76 0 -92 116q0 58 76 68z" />
    <glyph glyph-name="uniFEC6" unicode="&#x638;" horiz-adv-x="1043" arabic-form="final" 
d="M1048 164q49 -5 68 -40.5t1 -71t-43.5 -44t-92 0t-116.5 45t-70 80.5t32 93t67 21t38.5 -56.5t115.5 -27.5zM826 1683q57 0 79 -62v-24q-100 -468 -128 -814l-5 -57h2q94 57 162 57q101 0 140 -112l5 -40q18 -347 -213.5 -495.5t-594.5 -135.5q-163 -2 -163 10
q-39 28 -39 66q12 81 77 81l99 3v22q0 38 164 228q149 157 202 197l-7 31q0 166 73 636q50 275 78 373q30 36 69 36zM432 182h3q156 -28 317 71t179 242.5t-57 114.5t-246 -193q-158 -173 -196 -235zM1036 1499q73 0 124 -96v-20q0 -49 -88 -68h-20q-76 0 -92 116
q0 58 76 68z" />
    <glyph glyph-name="uniFEC7" unicode="&#x638;" horiz-adv-x="1048" arabic-form="initial" 
d="M675 1683q57 0 79 -62v-24q-100 -468 -128 -814l-5 -57h2q94 57 162 57q101 0 140 -112l5 -40q18 -347 -213.5 -495.5t-594.5 -135.5q-163 -2 -163 10q-39 28 -39 66q12 81 77 81l99 3v22q0 38 164 228q149 157 202 197l-7 31q0 166 73 636q50 275 78 373q30 36 69 36z
M281 182h3q156 -28 317 71t179 242.5t-57 114.5t-246 -193q-158 -173 -196 -235zM1036 1499q73 0 124 -96v-20q0 -49 -88 -68h-20q-76 0 -92 116q0 58 76 68z" />
    <glyph glyph-name="uniFEC8" unicode="&#x638;" horiz-adv-x="976" arabic-form="medial" 
d="M977 164q49 -5 68 -40.5t1 -71t-43.5 -44t-92 0t-116.5 45t-70 80.5t32 93t67 21t38.5 -56.5t115.5 -27.5zM755 1683q57 0 79 -62v-24q-100 -468 -128 -814l-5 -57h2q94 57 162 57q101 0 140 -112l5 -40q18 -347 -213.5 -495.5t-594.5 -135.5q-163 -2 -163 10
q-39 28 -39 66q12 81 77 81l99 3v22q0 38 164 228q149 157 202 197l-7 31q0 166 73 636q50 275 78 373q30 36 69 36zM361 182h3q156 -28 317 71t179 242.5t-57 114.5t-246 -193q-158 -173 -196 -235zM1036 1499q73 0 124 -96v-20q0 -49 -88 -68h-20q-76 0 -92 116
q0 58 76 68z" />
    <glyph glyph-name="uni0639" unicode="&#x639;" horiz-adv-x="1201" arabic-form="isolated" 
d="M991 849h12q62 -15 62 -61v-20q0 -50 -89 -72q-69 -27 -191 -136q-85 -86 -85 -121v-2l6 -2q257 85 338 85q60 0 70 -77q0 -89 -257 -146q-41 -9 -87 -9h-43l-2 2q-307 -85 -567 -290q-137 -125 -178 -185q-104 -150 -104 -253v-27q0 -110 101.5 -221t336.5 -170
t471.5 -22.5t341 79.5t171.5 43t67 -81q0 -65 -112 -91t-350.5 -68.5t-598 0t-515.5 348.5q-41 96 -41 191q0 333 440 654q140 92 246 140l134 53q-13 26 -13 47q0 151 270 340q105 65 166 72z" />
    <glyph glyph-name="uniFECA" unicode="&#x639;" horiz-adv-x="913" arabic-form="final" 
d="M501 524h164q294 0 294 -83v-19q0 -104 -109 -218l-41 -34q79 -15 116 -7q71 -27 71 -76v-11q0 -65 -83 -79q-205 -4 -308 75l-23 169q48 30 65 53v15q0 49 -86 49l-124 -8q-95 13 -95 75v30q0 72 159 69zM709 182q13 -121 -97 -110t-370 -193q-137 -125 -178 -185
q-104 -150 -104 -253v-27q0 -110 101.5 -221t312.5 -161.5t493.5 -1t345.5 71t138 21.5h8q90 0 90 -81q0 -65 -149 -119q-15 -8 -34 4t-31 36.5t-252 -36.5t-597 -31.5t-513 335.5q-41 96 -41 191q0 333 440 653q140 92 246 140l134 53z" />
    <glyph glyph-name="uniFECB" unicode="&#x639;" horiz-adv-x="792" arabic-form="initial" 
d="M470 711q51 0 77 -54l2 -18q0 -58 -123 -112q-160 -102 -184 -185l-10 -69q11 -84 25 -84l325 105l36 5h23q54 0 67 -59v-31q0 -45 -113 -79q-345 -142 -595 -133q-74 7 -83 76q17 74 83 78l48 2h30l3 3h2q-17 50 -17 82q0 231 371 468z" />
    <glyph glyph-name="uniFECC" unicode="&#x639;" horiz-adv-x="730" arabic-form="medial" 
d="M310 524h164q294 0 294 -83v-19q0 -104 -109 -218l-41 -34q79 -15 116 -7q71 -27 71 -76v-11q0 -65 -83 -79q-205 -4 -308 75q-221 -79 -418 -72h-3q-65 0 -80 83q0 83 117 80q177 -1 361 78q48 30 65 53v15q0 49 -86 49l-124 -8q-95 13 -95 75v30q0 72 159 69z" />
    <glyph glyph-name="uni063A" unicode="&#x63a;" horiz-adv-x="1201" arabic-form="isolated" 
d="M783 1459q73 0 124 -96v-20q0 -49 -88 -68h-20q-76 0 -92 116q0 58 76 68zM991 849h12q62 -15 62 -61v-20q0 -50 -89 -72q-69 -27 -191 -136q-85 -86 -85 -121v-2l6 -2q257 85 338 85q60 0 70 -77q0 -89 -257 -146q-41 -9 -87 -9h-43l-2 2q-307 -85 -567 -290
q-137 -125 -178 -185q-104 -150 -104 -253v-27q0 -110 101.5 -221t336.5 -170t471.5 -22.5t341 79.5t171.5 43t67 -81q0 -65 -112 -91t-350.5 -68.5t-598 0t-515.5 348.5q-41 96 -41 191q0 333 440 654q140 92 246 140l134 53q-13 26 -13 47q0 151 270 340q105 65 166 72z
" />
    <glyph glyph-name="uniFECE" unicode="&#x63a;" horiz-adv-x="870" arabic-form="final" 
d="M454 524h164q294 0 294 -83v-19q0 -104 -109 -218l-41 -34q79 -15 116 -7q71 -27 71 -76v-11q0 -65 -83 -79q-205 -4 -308 75l-23 169q48 30 65 53v15q0 49 -86 49l-124 -8q-95 13 -95 75v30q0 72 159 69zM662 182q13 -121 -97 -110t-370 -193q-137 -125 -178 -185
q-104 -150 -104 -253v-27q0 -110 101.5 -221t312.5 -161.5t493.5 -1t345.5 71t138 21.5h8q90 0 90 -81q0 -65 -149 -119q-15 -8 -34 4t-31 36.5t-252 -36.5t-597 -31.5t-513 335.5q-41 96 -41 191q0 333 440 653q140 92 246 140l134 53zM658 1033q73 0 124 -96v-20
q0 -49 -88 -68h-20q-76 0 -92 116q0 58 76 68z" />
    <glyph glyph-name="uniFECF" unicode="&#x63a;" horiz-adv-x="792" arabic-form="initial" 
d="M470 711q51 0 77 -54l2 -18q0 -58 -123 -112q-160 -102 -184 -185l-10 -69q11 -84 25 -84l325 105l36 5h23q54 0 67 -59v-31q0 -45 -113 -79q-345 -142 -595 -133q-74 7 -83 76q17 74 83 78l48 2h30l3 3h2q-17 50 -17 82q0 231 371 468zM430 1342q73 0 124 -96v-20
q0 -49 -88 -68h-20q-76 0 -92 116q0 58 76 68z" />
    <glyph glyph-name="uniFED0" unicode="&#x63a;" horiz-adv-x="851" arabic-form="medial" 
d="M268 524h203q294 0 294 -83v-19q0 -104 -109 -218l-41 -34q79 -15 210 -6q50 -28 50 -77v-11q0 -64 -83 -79q-278 -4 -381 75q-221 -79 -418 -72h-3q-65 0 -80 83q0 83 117 80q177 -1 361 78q48 30 65 53v15q0 49 -125 49l-158 -11q-94 13 -94 75v30q0 72 192 72z
M452 1172q73 0 124 -96v-20q0 -49 -88 -68h-20q-76 0 -92 116q0 58 76 68z" />
    <glyph glyph-name="uni0641" unicode="&#x641;" horiz-adv-x="2470" arabic-form="isolated" 
d="M1007 1170h5q85 -12 85 -82v-15q0 -66 -117 -89q-415 -138 -572 -265q-171 -117 -171 -270v-25q0 -287 461 -414q119 -31 262 -31q420 0 934 254q-15 64 -15 104q0 222 181 365q75 52 134 52h7q121 0 159 -139l5 -52v-5q0 -137 -122 -292q-120 -115 -210 -154
q-130 -75 -275 -131q-392 -138 -733 -138q-425 0 -743 222q-211 164 -211 374q0 291 411 525q128 74 374 161q132 45 151 45zM2050 365q0 -30 8 -30q100 84 119 163q14 26 14 60v5l-2 12q-85 -40 -131 -158q-8 -26 -8 -52zM1751 1468q73 0 124 -96v-20q0 -49 -88 -68h-20
q-76 0 -92 116q0 58 76 68z" />
    <glyph glyph-name="uniFED2" unicode="&#x641;" horiz-adv-x="2270" arabic-form="final" 
d="M2277 158q49 -5 68 -40.5t1 -71t-43.5 -44t-117 -1.5t-143.5 32.5t-86.5 84t22.5 109.5t91 16t75 -60.5t133 -24.5zM1007 1113h5q85 -12 85 -81v-15q0 -66 -117 -89q-415 -138 -572 -266q-171 -116 -171 -270v-24q0 -287 461 -414q119 -32 262 -32q420 0 934 255
q-15 63 -15 104q0 222 181 364q75 52 134 52h7q121 0 159 -139l5 -52v-5q0 -137 -122 -292q-120 -115 -210 -153q-130 -75 -275 -131q-392 -139 -733 -139q-425 0 -743 222q-211 165 -211 375q0 291 411 525q128 74 374 161q132 44 151 44zM2050 308q0 -30 8 -30
q100 85 119 164q14 25 14 59v5l-2 13q-85 -41 -131 -159q-8 -26 -8 -52zM1751 1412q73 0 124 -96v-20q0 -49 -88 -68h-20q-76 0 -92 116q0 58 76 68z" />
    <glyph glyph-name="uniFED3" unicode="&#x641;" horiz-adv-x="707" arabic-form="initial" 
d="M531 696h38q122 0 138 -157q0 -309 -494 -509q-89 -30 -202 -30h-26q-75 17 -75 67v23q0 66 90 75q97 0 146 15v3q-30 46 -30 90v19q0 121 232 325q99 79 183 79zM247 307v-19q0 -37 33 -60q91 36 221 165q56 74 56 112q0 14 -22 30h-4q-75 0 -258 -180q-26 -29 -26 -48z
M494 1408q73 0 124 -96v-20q0 -49 -88 -68h-20q-76 0 -92 116q0 58 76 68z" />
    <glyph glyph-name="uniFED4" unicode="&#x641;" horiz-adv-x="601" arabic-form="medial" 
d="M469 168q57 -10 142 -4q49 -5 68 -40.5t8.5 -68.5t-43.5 -47.5t-86 -8t-142.5 18t-146 46.5t-30.5 101.5t99.5 39.5t130.5 -37zM531 696h38q122 0 138 -157q0 -309 -494 -509q-89 -30 -202 -30h-26q-75 17 -75 67v23q0 66 90 75q97 0 146 15v3q-30 46 -30 90v19
q0 121 232 325q99 79 183 79zM247 307v-19q0 -37 33 -60q91 36 221 165q56 74 56 112q0 14 -22 30h-4q-75 0 -258 -180q-26 -29 -26 -48zM572 1130q73 0 124 -96v-20q0 -49 -88 -68h-20q-76 0 -92 116q0 58 76 68z" />
    <glyph glyph-name="uni0642" unicode="&#x642;" horiz-adv-x="2696" arabic-form="isolated" 
d="M1708 1294q361 -8 361 -22q45 -26 45 -77q0 -53 -62 -76l-14 -2q-230 13 -337 13q-484 0 -902 -193q-167 -72 -324 -181q-185 -135 -240 -307q-19 -77 -19 -148q0 -201 248 -387q269 -178 616 -178h22q383 0 804 197q104 53 206 129q96 82 141 144l47 67v2h-2
q-140 0 -195 132q-15 40 -15 85v13q0 173 154 264q57 25 103 25h9q126 0 188 -136q18 -51 18 -112q0 -136 -102 -331q-47 -90 -167 -214q-114 -105 -212 -159q-104 -64 -293 -131q-310 -100 -623 -100q-499 0 -857 266q-244 204 -244 414v28q0 112 61 263q37 88 149 210
q146 134 246 184q172 105 429 195q345 123 761 123zM2252 502v-10q0 -41 29 -54q34 -16 60 -16h4q47 0 59 122l2 15q-9 71 -61 71q-55 0 -86 -78q-7 -24 -7 -50zM2648 1807q35 0 52 -28l-26 -68q-9 -35 -590 -92h-8q-96 0 -96 52q0 65 108 88q151 24 560 48z" />
    <glyph glyph-name="uniFED6" unicode="&#x642;" horiz-adv-x="2474" arabic-form="final" 
d="M2473 158q49 -5 68 -40.5t1 -71t-43.5 -44t-117 -1.5t-76 80t45.5 74.5t122 2.5zM1612 1029q361 -8 361 -22q45 -26 45 -77q0 -53 -62 -76l-14 -2q-230 13 -337 13q-484 0 -902 -193q-167 -72 -324 -181q-185 -135 -240 -307q-19 -77 -19 -148q0 -200 248 -387
q269 -178 616 -178h22q383 0 804 197q104 53 206 130q96 82 141 143l47 67v2h-2q-140 0 -195 132q-15 40 -15 85v13q0 173 154 264q57 25 103 25h9q126 0 188 -136q18 -51 18 -112q0 -136 -102 -330q-47 -90 -167 -214q-114 -106 -212 -160q-104 -64 -293 -131
q-310 -100 -623 -100q-499 0 -857 266q-244 204 -244 414v28q0 112 61 263q37 88 149 210q146 134 246 184q172 105 429 195q345 123 761 123zM2156 237v-10q0 -41 29 -54q34 -16 60 -16h4q47 0 59 122l2 15q-9 71 -61 71q-55 0 -86 -78q-7 -24 -7 -50zM2552 1542
q35 0 52 -28l-26 -68q-9 -35 -590 -92h-8q-96 0 -96 52q0 65 108 88q151 24 560 48z" />
    <glyph glyph-name="uniFED7" unicode="&#x642;" horiz-adv-x="701" arabic-form="initial" 
d="M531 696h38q122 0 138 -157q0 -309 -494 -509q-89 -30 -202 -30h-26q-75 17 -75 67v23q0 66 90 75q97 0 146 15v3q-30 46 -30 90v19q0 121 232 325q99 79 183 79zM247 307v-19q0 -37 33 -60q91 36 221 165q56 74 56 112q0 14 -22 30h-4q-75 0 -258 -180q-26 -29 -26 -48z
M778 1464q35 0 52 -28l-26 -68q-9 -35 -590 -92h-8q-96 0 -96 52q0 65 108 88q151 24 560 48z" />
    <glyph glyph-name="uniFED8" unicode="&#x642;" horiz-adv-x="600" arabic-form="medial" 
d="M469 168q57 -10 142 -4q49 -5 68 -40.5t8.5 -68.5t-43.5 -47.5t-86 -8t-142.5 18t-146 46.5t-30.5 101.5t99.5 39.5t130.5 -37zM531 696h38q122 0 138 -157q0 -309 -494 -509q-89 -30 -202 -30h-26q-75 17 -75 67v23q0 66 90 75q97 0 146 15v3q-30 46 -30 90v19
q0 121 232 325q99 79 183 79zM247 307v-19q0 -37 33 -60q91 36 221 165q56 74 56 112q0 14 -22 30h-4q-75 0 -258 -180q-26 -29 -26 -48zM722 1173q35 0 52 -28l-26 -68q-9 -35 -403 -57h-8q-96 0 -96 52q0 65 108 88z" />
    <glyph glyph-name="uni0643" unicode="&#x643;" horiz-adv-x="1802" arabic-form="isolated" 
d="M696 1033h14q70 -13 70 -69v-11q0 -65 -119 -91q-475 -194 -475 -440q0 -200 419 -284q73 -14 154 -14q293 0 675 214q106 63 252 213q115 134 115 311l-7 102q22 62 63 62h21q62 0 70 -80l3 -56v-52q0 -397 -520 -675q-340 -154 -633 -154h-35q-389 0 -626 192
q-105 111 -105 235q0 327 552 562zM3066 2133q56 0 77 -63v-21q0 -39 -101 -133q-586 -394 -1005 -448q-15 -7 -160 -28q-52 0 -67 70v17q0 37 78 53.5t182 39.5t389.5 133t564.5 366z" />
    <glyph glyph-name="uniFEDA" unicode="&#x6a9;" horiz-adv-x="2098" arabic-form="final" 
d="M836 1034h14q70 -14 70 -70v-11q0 -65 -119 -90q-475 -195 -475 -441q0 -199 419 -283q73 -14 154 -14q293 0 675 213q106 64 252 213q115 135 115 312l-7 101q22 63 63 63h21q62 0 70 -81l3 -55v-53q0 -396 -520 -675q-340 -154 -633 -154h-35q-389 0 -626 193
q-105 110 -105 234q0 327 552 563zM3228 2020q56 0 77 -63v-21q0 -38 -101 -132q-586 -394 -1005 -449q-15 -7 -160 -28q-52 0 -67 70v18q0 37 78 53.5t182 39t389.5 132.5t564.5 366zM2020 330.5q-5 -99.5 19.5 -135.5t49.5 -33q49 -5 68 -39.5t1 -70t-43.5 -44t-58.5 -7
t-73.5 22.5t-80.5 99t-15 237t125.5 360.5t56.5 -44.5t-49 -345.5z" />
    <glyph glyph-name="uniFEDB" unicode="&#x6a9;" horiz-adv-x="691" arabic-form="initial" 
d="M384.5 959.5q34.5 33.5 71.5 4t68 -165.5t11 -343.5t-175.5 -325t-352.5 -129.5q-85 8 -85 70v23q0 69 85 69q122 0 247.5 102.5t139 242.5t-15 279.5t6 173zM1310 1870q56 0 77 -63v-21q0 -39 -245.5 -187.5t-397.5 -235t-239.5 -121t-104 34t68 111t296.5 149
t503 319.5z" />
    <glyph glyph-name="uniFEDC" unicode="&#x6a9;" horiz-adv-x="543" arabic-form="medial" 
d="M499 258.5q10 -73.5 49.5 -88.5t53.5 -41t9 -62t-35 -56t-78.5 3t-95 95.5t-29.5 184t70.5 104.5t49.5 -36.5t6 -103zM375.5 959.5q34.5 33.5 71.5 4t68 -165.5t11 -343.5t-175.5 -325t-352.5 -129.5q-85 8 -85 70v23q0 69 85 69q122 0 247.5 102.5t139 242.5t-15 279.5
t6 173zM1301 1870q56 0 77 -63v-21q0 -39 -245.5 -187.5t-397.5 -235t-239.5 -121t-104 34t68 111t296.5 149t503 319.5z" />
    <glyph glyph-name="uni06AF" unicode="&#x6af;" horiz-adv-x="1801" arabic-form="isolated" 
d="M3079 2129q56 0 77 -63v-21q0 -39 -101 -133q-586 -394 -1005 -448q-15 -7 -160 -28q-52 0 -67 70v17q0 37 56 70q37 106 231 301q209 210 287 210h21q57 0 101 -91l3 -28v-11q0 -65 -195 -227q-93 -66 -147 -66h-7q-29 0 -77 35h-4q-97 -94 -105 -112h4q115 0 441 127.5
t605 383.5zM696 1033h14q70 -13 70 -69v-11q0 -65 -119 -91q-475 -194 -475 -440q0 -200 419 -284q73 -14 154 -14q293 0 675 214q106 63 252 213q115 134 115 311l-7 102q22 62 63 62h21q62 0 70 -80l3 -56v-52q0 -397 -520 -675q-340 -154 -633 -154h-35q-389 0 -626 192
q-105 111 -105 235q0 327 552 562z" />
    <glyph glyph-name="uniFB93" unicode="&#x6af;" horiz-adv-x="2087" arabic-form="final" 
d="M845 1033h14q70 -13 70 -69v-11q0 -65 -119 -91q-475 -194 -475 -440q0 -200 419 -284q73 -14 154 -14q293 0 675 214q106 63 252 213q115 134 115 311l-7 102q22 62 63 62h21q62 0 70 -80l3 -56v-52q0 -397 -520 -675q-340 -154 -633 -154h-35q-389 0 -626 192
q-105 111 -105 235q0 327 552 562zM2019.5 330.5q-5.5 -99.5 19 -135.5t50.5 -33q49 -5 68 -39.5t1 -70t-43.5 -44t-59 -7t-74 22.5t-80.5 99t-15 237t125.5 360.5t57 -44.5t-49 -345.5zM3088 2020q56 0 77 -63v-21q0 -39 -101 -133q-586 -394 -1005 -448q-15 -7 -160 -28
q-52 0 -67 70v17q0 37 56 70q37 106 231 301q209 210 287 210h21q57 0 101 -91l3 -28v-11q0 -65 -195 -227q-93 -66 -147 -66h-7q-29 0 -77 35h-4q-97 -94 -105 -112h4q115 0 441 127.5t605 383.5z" />
    <glyph glyph-name="uniFB94" unicode="&#x6af;" horiz-adv-x="763" arabic-form="initial" 
d="M1527 1929q56 0 77 -63v-21q0 -39 -101 -133q-586 -394 -1005 -448q-15 -7 -160 -28q-52 0 -67 70v17q0 37 56 70q37 106 231 301q209 210 287 210h21q57 0 101 -91l3 -28v-11q0 -65 -195 -227q-93 -66 -147 -66h-7q-29 0 -77 35h-4q-97 -94 -105 -112h4q115 0 441 127.5
t605 383.5zM380.5 959.5q34.5 33.5 71.5 4t33 -161.5t-19 -315.5t-140.5 -329t-322.5 -157.5q-85 8 -85 70v23q0 69 85 69q122 0 217.5 130.5t104 246.5t15 251.5t41 169z" />
    <glyph glyph-name="uniFB95" unicode="&#x6af;" horiz-adv-x="405" arabic-form="medial" 
d="M1514 1946q56 0 77 -63v-21q0 -39 -101 -133q-586 -394 -1005 -448q-15 -7 -160 -28q-52 0 -67 70v17q0 37 56 70q37 106 231 301q209 210 287 210h21q57 0 101 -91l3 -28v-11q0 -65 -195 -227q-93 -66 -147 -66h-7q-29 0 -77 35h-4q-97 -94 -105 -112h4q115 0 441 127.5
t605 383.5zM378 258.5q10 -73.5 49.5 -88.5t53.5 -41t9 -62t-35 -56t-78.5 3t-95 95.5t-29.5 184t70.5 104.5t49.5 -36.5t6 -103zM324.5 959.5q34.5 33.5 71.5 4t33 -161.5t-19 -315.5t-99.5 -329t-311.5 -157.5q-85 8 -85 70v23q0 69 85 69q152 0 206.5 130.5t63 246.5
t15 251.5t41 169z" />
    <glyph glyph-name="uni0644" unicode="&#x644;" horiz-adv-x="2198" arabic-form="isolated" 
d="M2047 1288q62 0 83 -73v-5l3 -206q0 -631 -119 -791q-52 -104 -236 -298q-406 -396 -961 -396h-68q-347 0 -563 160q-155 131 -155 286v31q0 175 193 367q188 165 357 215q213 66 348 66q145 0 169 -96l3 -28q-14 -104 -96 -104q-54 0 -66 56h-5q-150 0 -378 -86
q-380 -191 -380 -426q0 -174 263 -261q109 -33 266 -33h3q837 0 1166 646q87 145 87 670v200l-3 23q0 56 66 81z" />
    <glyph glyph-name="uniFEDE" unicode="&#x644;" horiz-adv-x="2133" arabic-form="final" 
d="M2043 1288q62 0 83 -73v-5l3 -206q0 -631 -119 -791q-52 -104 -236 -298q-406 -396 -961 -396h-68q-347 0 -563 160q-155 131 -155 286v31q0 175 193 367q188 165 357 215q213 66 348 66q145 0 169 -96l3 -28q-14 -104 -96 -104q-54 0 -66 56h-5q-150 0 -378 -86
q-380 -191 -380 -426q0 -174 263 -261q109 -33 266 -33h3q837 0 1166 646q87 145 87 670v200l-3 23q0 56 66 81zM2078.5 254q18.5 -69 95.5 -97q21 -10 34 -39.5t11 -61t-43.5 -48.5t-90 6t-95 95.5t-29.5 184t97 260.5t41 -41t-20.5 -259z" />
    <glyph glyph-name="uniFEDF" unicode="&#x644;" horiz-adv-x="400" arabic-form="initial" 
d="M154 942.5q26 28.5 72 17t67 -147t25 -353t-63.5 -332.5t-242.5 -127q-85 8 -85 70v23q0 69 85 69q100 0 134.5 104t21 260.5t-26.5 272t13 144z" />
    <glyph glyph-name="uniFEE0" unicode="&#x644;" horiz-adv-x="343" arabic-form="medial" 
d="M287 258.5q10 -73.5 49.5 -88.5t53.5 -41t9 -62t-35 -56t-78.5 3t-95 95.5t-29.5 184t70.5 104.5t49.5 -36.5t6 -103zM233.5 959.5q34.5 33.5 71.5 4t33 -161.5t-19 -315.5t-73.5 -329t-233.5 -157.5q-85 8 -85 70v23q0 69 85 69q100 0 128.5 130.5t37 246.5t15 251.5
t41 169z" />
    <glyph glyph-name="uni0645" unicode="&#x645;" horiz-adv-x="1500" arabic-form="isolated" 
d="M1157 728q168 0 269 -150q54 -90 54 -198q0 -187 -207 -325q-98 -52 -165 -52h-28q-108 0 -198 101q-68 86 -68 209v5q0 102 119 250v2q-122 -35 -228 -82q-126 -57 -250 -144q-228 -177 -228 -351q0 -254 231 -497q19 -21 19 -47v-15q0 -59 -64 -79l-16 -1q-45 0 -85 59
q-168 204 -219 438q-19 98 -19 161q0 329 480 563q349 153 603 153zM971 312v-12q0 -118 112 -160l33 -5q74 0 170 102q61 81 61 148q0 82 -98 160q-39 19 -55 19q-61 0 -174 -130q-49 -72 -49 -122z" />
    <glyph glyph-name="uniFEE2" unicode="&#x645;" horiz-adv-x="1458" arabic-form="final" 
d="M1161 728q168 0 269 -150q54 -90 54 -198q0 -187 -207 -325q-98 -52 -165 -52h-28q-108 0 -198 101q-68 86 -68 209v5q0 102 119 250v2q-122 -35 -228 -82q-126 -57 -250 -144q-228 -177 -228 -351q0 -254 231 -497q19 -21 19 -47v-15q0 -59 -64 -79l-16 -1q-45 0 -85 59
q-168 204 -219 438q-19 98 -19 161q0 329 480 563q349 153 603 153zM975 312v-12q0 -118 112 -160l33 -5q74 0 170 102q61 81 61 148q0 82 -98 160q-39 19 -55 19q-61 0 -174 -130q-49 -72 -49 -122zM1519.5 110.5q15.5 -36.5 3 -68t-38 -40t-78.5 11t-81 93.5t56.5 165.5
t65 -8t19 -108.5t54 -45.5z" />
    <glyph glyph-name="uniFEE3" unicode="&#x645;" horiz-adv-x="706" arabic-form="initial" 
d="M447 567h5q64 0 106.5 -63t39 -182.5t-66.5 -220.5t-203 -104q-124 10 -171 102q-92 -110 -169 -98q-63 17 -65.5 71.5t29.5 75t69.5 25t82.5 60.5t140 195t203 139zM430.5 183.5q54.5 51.5 51 117t-45.5 83.5t-109 -72t-77 -117q12 -33 69 -48t111.5 36.5z" />
    <glyph glyph-name="uniFEE4" unicode="&#x645;" horiz-adv-x="638" arabic-form="medial" 
d="M657 158.5q28 -2.5 44.5 -39.5t-1.5 -72.5t-53.5 -44t-85 22t-78.5 89.5t45.5 151t59 10t13 -98t56.5 -18.5zM455 567h5q64 0 106.5 -63t39 -182.5t-66.5 -220.5t-203 -104q-124 10 -171 102q-92 -110 -169 -98q-63 17 -65.5 71.5t29.5 75t69.5 25t82.5 60.5t140 195
t203 139zM438.5 183.5q54.5 51.5 51 117t-45.5 83.5t-109 -72t-77 -117q12 -33 69 -48t111.5 36.5z" />
    <glyph glyph-name="uni0646" unicode="&#x646;" horiz-adv-x="2442" arabic-form="isolated" 
d="M2268 982h22q65 0 74 -99q39 -243 39 -422q0 -247 -85 -358q-161 -230 -386 -354q-425 -258 -900 -258q-456 0 -830 248q-184 151 -184 332q0 267 337 514q485 304 861 354q74 -13 74 -70v-22q0 -63 -152 -81q-55 0 -351 -114q-250 -121 -439 -269q-174 -171 -174 -308
q0 -154 177 -294q254 -156 603 -156h39q594 0 1056 382q154 151 184 277q14 68 14 184q0 143 -42 447v3q21 64 63 64zM1545 412q73 0 124 -96v-20q0 -49 -88 -68h-20q-76 0 -92 116q0 58 76 68z" />
    <glyph glyph-name="uniFEE6" unicode="&#x646;" horiz-adv-x="2481" arabic-form="final" 
d="M2408 245q10 -53 78 -81q49 -5 68 -40.5t8.5 -68.5t-43.5 -47t-98 9t-110 94t-50.5 352t92 253t71.5 -223t-16 -248zM2348 740h22q65 -1 74 -99l-22 -185q-19 -242 -104 -353q-161 -230 -386 -354q-425 -258 -900 -258q-456 0 -830 248q-184 151 -184 332q0 267 337 514
q485 304 861 354q74 -13 74 -70v-22q0 -63 -152 -81q-55 0 -351 -114q-250 -121 -439 -269q-174 -171 -174 -308q0 -154 177 -294q254 -156 603 -156h39q594 0 1056 382q154 151 184 277q14 68 33 179l19 210v3q21 64 63 64zM1545 412q73 0 124 -96v-20q0 -49 -88 -68h-20
q-76 0 -92 116q0 58 76 68z" />
    <glyph glyph-name="uniFEE7" unicode="&#x646;" horiz-adv-x="591" arabic-form="initial" 
d="M-15 1q-84 9 -79 78.5t76 80.5q171 3 249 73t97.5 203t73.5 167q0 6 30 7q107 -21 69 -161q-39 -184 -102 -262.5t-172 -138t-242 -47.5zM324 1179q73 0 124 -96v-20q0 -50 -88 -68h-20q-76 0 -92 116q0 58 76 68z" />
    <glyph glyph-name="uniFEE8" unicode="&#x646;" horiz-adv-x="400" arabic-form="medial" 
d="M328 223.5q2 -50.5 71 -59.5q63 5 80 -73v-18q-16 -73 -83 -73q-165 -1 -182 122q-44 -68 -91 -95t-116 -30q-89 14 -83.5 88t80.5 86q118 0 180.5 186t97.5 223t78 24q83 -42 24 -162q-40 -109 -49 -138.5t-7 -80zM312 1125q73 0 124 -96v-20q0 -49 -88 -68h-20
q-76 0 -92 116q0 58 76 68z" />
    <glyph glyph-name="uni0648" unicode="&#x648;" horiz-adv-x="479" arabic-form="isolated" 
d="M406 585q87 -8 114 -116q4 -38 1 -69q-18 -207 -227 -509q-67 -96 -240 -254q-177 -161 -227 -175l-15 1q-37 3 -59 52q-7 13 -5 33l1 4q5 57 76 100q76 65 165 150q126 120 177 199q-131 56 -120 181q13 140 198 338q85 72 161 65zM211 165l38 -21q26 18 84 166l19 80
q-91 -89 -133 -196z" />
    <glyph glyph-name="uniFEEE" unicode="&#x648;" horiz-adv-x="497" arabic-form="final" 
d="M489 164q49 -5 68 -40.5t8.5 -68.5t-43.5 -47.5t-149 -9t-72 94t188 71.5zM404 585q87 -8 114 -116q4 -38 1 -69q-18 -207 -227 -509q-67 -96 -240 -254q-177 -161 -227 -175l-15 1q-37 3 -59 52q-7 13 -5 33l1 4q5 57 76 100q76 65 165 150q126 120 187 219
q-130 54 -116 173q-1 128 184 326q85 72 161 65zM260 171q26 18 71 139l19 80q-91 -89 -114.5 -149.5t24.5 -69.5z" />
    <glyph glyph-name="uni0647" unicode="&#x647;" horiz-adv-x="997" arabic-form="isolated" 
d="M617 585q40 0 142 -77q79 -71 94 -98q44 -65 44 -149q0 -116 -90 -178q-130 -79 -349 -79h-40q-206 0 -255 30q-29 11 -65 46q-45 52 -45 115q0 94 102 174q74 63 144 101q68 40 164 73q82 28 101 28h9l17 8q14 6 27 6zM604 437q-10 -8 -60 -20q-100 -32 -169 -70
q-66 -36 -146 -105q-31 -29 -31 -48v-1q0 -19 42 -33q18 -8 182 -11h19q203 0 294 60q17 20 17 49v7q0 49 -38 86q-44 45 -70 62z" />
    <glyph glyph-name="uniFEEA" unicode="&#x647;" horiz-adv-x="623" arabic-form="final" 
d="M351 488q178 0 233 -130q15 -39 23 -163q6 -33 30 -33q65 -27 65 -73v-15q0 -62 -73 -80h-57q-81 0 -106 60q-23 28 -37 226q-15 58 -58 58l-15 2h-13q-157 0 -379 -243q-77 -98 -90 -145h3l35 5h7q81 -12 81 -78l2 -3v-2q0 -95 -150 -95q-119 0 -148 102l-3 26v22
q0 140 268 384q213 175 382 175z" />
    <glyph glyph-name="uniFEEB" unicode="&#x647;" horiz-adv-x="1199" arabic-form="initial" 
d="M427 575q140 0 430 -34q244 -41 244 -194q0 -132 -171 -235q-71 -52 -295 -80q-99 -16 -208 -16q-109 3 -109 7q-147 -30 -317 -23q-73 14 -80.5 78.5t78.5 79.5q62 1 91 4q-10 15 -10 30q0 109 128 235q78 71 156 98q22 50 63 50zM731 397q7 -11 7 -25q0 -70 -89 -182
q111 13 185 45q112 66 112 114q0 20 -151 44l-64 7v-3zM231 178q0 -23 37 -23q116 0 260 140q55 62 55 80q-24 22 -82 22q-152 0 -252 -164q-18 -34 -18 -55z" />
    <glyph glyph-name="uniFEEC" unicode="&#x647;" horiz-adv-x="1083" arabic-form="medial" 
d="M426 575q140 0 430 -34q244 -41 244 -194q0 -132 -171 -235q-71 -52 -295 -80q-99 -16 -208 -16q-109 3 -109 7q-147 -30 -317 -23q-73 14 -80.5 78.5t78.5 79.5q62 1 91 4q-10 15 -10 30q0 109 128 235q78 71 156 98q22 50 63 50zM730 397q7 -11 7 -25q0 -70 -89 -182
q111 13 185 45q112 66 112 114q0 20 -151 44l-64 7v-3zM230 178q0 -23 37 -23q116 0 260 140q55 62 55 80q-24 22 -82 22q-152 0 -252 -164q-18 -34 -18 -55zM1078 159q49 -5 68 -40.5t1 -71t-43.5 -44t-101.5 -0.5t-140 40.5t-60.5 81t55.5 97.5t70 22.5t66 -56.5t85 -29z
" />
    <glyph glyph-name="uni0629" unicode="&#x629;" horiz-adv-x="996" arabic-form="isolated" 
 />
    <glyph glyph-name="uniFE94" unicode="&#x6c0;" horiz-adv-x="923" arabic-form="final" 
d="M651 488q178 0 233 -130q15 -39 23 -163q6 -33 30 -33q65 -27 65 -73v-15q0 -62 -73 -80h-57q-81 0 -106 60q-23 28 -37 226q-15 58 -58 58l-15 2h-13q-157 0 -379 -243q-77 -98 -90 -145h3l35 5h7q81 -12 81 -78l2 -3v-2q0 -95 -150 -95q-119 0 -148 102l-3 26v22
q0 140 268 384q213 175 382 175zM410 1107q24 0 52 -27q37 -35 37 -39l1 -4q0 -18 -28 -22h-5q-7 -4 -7 -13v-5q0 -23 47 -94q19 -32 19 -67q0 -47 -43 -79q-125 -125 -150 -125l-8 -1h-12q-25 0 -29 32q0 38 46 73l80 67q23 32 23 60q0 43 -62 111q-24 31 -24 59
q0 49 34 67q16 7 29 7z" />
    <glyph glyph-name="uni064A" unicode="&#x64a;" horiz-adv-x="3200" arabic-form="isolated" 
d="M1591 1253q301 0 370 -98q16 -25 16 -52v-10q0 -68 -94 -127l-23 -3h-8q-53 0 -73 64v19q0 8 15 29v3q-101 18 -214 18q-517 0 -998 -253q-121 -62 -246 -167q-158 -153 -158 -271v-12q0 -152 217 -287q92 -60 348 -126q331 -80 707 -80q375 0 753 74q200 52 325 114
q206 109 206 207q0 90 -251 260q-78 53 -133 114q-45 53 -45 105v3q0 122 281 180q304 84 449 84h36q79 0 96 -59l2 -19v-2q0 -60 -64 -77l-11 -2l-51 4q-183 0 -490 -100q-54 -28 -54 -41q6 -13 86 -66q306 -185 306 -365v-18q0 -218 -338 -356q-94 -41 -312 -89
q-351 -66 -697 -66h-46q-602 0 -1094 195q-358 161 -358 418v19q0 194 212 396q104 88 191 135q534 305 1142 305z" />
    <glyph glyph-name="uniFEF2" unicode="&#x6cc;" horiz-adv-x="1493" arabic-form="final" 
d="M833 660h31q73 0 85 -54l2 -12q0 -83 -168 -237l-21 -5h-10q-68 0 -81 83q5 20 38 62q-247 -42 -412 -152q-97 -53 -283 -223q-152 -166 -152 -294q0 -106 150 -201q134 -69 301 -69h48q231 0 529 92q135 50 232 112q169 116 169 159q0 28 -152 104q-48 32 -48 73v3
q0 72 83 80h3l123 -16l33 -3l140 3h7l34 2q55 0 76 -69v-14q0 -66 -81 -78h-31l-52 -3q26 -48 26 -87q0 -96 -204 -225q-131 -96 -346 -174q-302 -99 -601 -99q-463 0 -567 296q-14 52 -14 98v21q0 188 297 455q215 173 363 230q302 142 453 142z" />
    <glyph glyph-name="uniFEF3" unicode="&#x6cc;" horiz-adv-x="600" arabic-form="initial" 
d="M-6 1q-84 9 -79 78.5t76 80.5q171 3 249 73t97.5 203t73.5 167q0 6 30 7q107 -21 69 -161q-39 -184 -102 -262.5t-172 -138t-242 -47.5zM354 -135q32 0 47 -28l-23 -68q-8 -34 -418 -79h-7q-87 0 -87 52q0 66 98 88z" />
    <glyph glyph-name="uniFEF4" unicode="&#x6cc;" horiz-adv-x="378" arabic-form="medial" 
d="M319 223.5q2 -50.5 71 -59.5q63 5 80 -73v-18q-16 -73 -83 -73q-165 -1 -182 122q-44 -68 -91 -95t-116 -30q-89 14 -83.5 88t80.5 86q118 0 180.5 186t97.5 223t78 24q83 -42 24 -162q-40 -109 -49 -138.5t-7 -80zM383 -365q23 0 34 -28l-17 -68q-6 -35 -388 -92h-6
q-63 0 -63 52q0 65 71 88q99 24 369 48z" />
    <glyph glyph-name="uni0649" unicode="&#x649;" horiz-adv-x="3204" arabic-form="isolated" 
d="M1591 1253q301 0 370 -98q16 -25 16 -52v-10q0 -68 -94 -127l-23 -3h-8q-53 0 -73 64v19q0 8 15 29v3q-101 18 -214 18q-517 0 -998 -253q-121 -62 -246 -167q-158 -153 -158 -271v-12q0 -152 217 -287q92 -60 348 -126q331 -80 707 -80q375 0 753 74q200 52 325 114
q206 109 206 207q0 90 -251 260q-78 53 -133 114q-45 53 -45 105v3q0 122 281 180q304 84 449 84h36q79 0 96 -59l2 -19v-2q0 -60 -64 -77l-11 -2l-51 4q-183 0 -490 -100q-54 -28 -54 -41q6 -13 86 -66q306 -185 306 -365v-18q0 -218 -338 -356q-94 -41 -312 -89
q-351 -66 -697 -66h-46q-602 0 -1094 195q-358 161 -358 418v19q0 194 212 396q104 88 191 135q534 305 1142 305z" />
    <glyph glyph-name="uniFEF0" unicode="&#x649;" horiz-adv-x="1818" arabic-form="final" 
d="M1133 660h31q73 0 85 -54l2 -12q0 -83 -168 -237l-21 -5h-10q-68 0 -81 83q5 20 38 62q-247 -42 -412 -152q-97 -53 -283 -223q-152 -166 -152 -294q0 -106 150 -201q134 -69 301 -69h48q231 0 529 92q135 50 232 112q169 116 169 159q0 28 -152 104q-48 32 -48 73v3
q0 72 83 80h3l123 -16l33 -3l140 3h7l34 2q55 0 76 -69v-14q0 -66 -81 -78h-31l-52 -3q26 -48 26 -87q0 -96 -204 -225q-131 -96 -346 -174q-302 -99 -601 -99q-463 0 -567 296q-14 52 -14 98v21q0 188 297 455q215 173 363 230q302 142 453 142z" />
    <glyph glyph-name="uFE88" unicode="&#x625;" horiz-adv-x="370" arabic-form="final" 
d="M499 958h27q51 0 69 -62v-15q0 -41 -115 -159q-224 -265 -224 -401v-23q15 -136 115 -136q85 0 85 -69v-23q0 -62 -85 -70q-193 0 -262 213l-8 85v11q0 249 367 637zM132 -19q24 0 52 -27q37 -35 37 -39l1 -4q0 -18 -28 -22h-5q-7 -4 -7 -13v-5q0 -23 47 -94
q19 -32 19 -67q0 -47 -43 -79q-125 -125 -150 -125l-8 -1h-12q-25 0 -29 32q0 38 46 73l80 67q23 32 23 60q0 43 -62 111q-24 31 -24 59q0 49 34 67q16 7 29 7z" />
    <glyph glyph-name="uFE8A" unicode="&#x626;" horiz-adv-x="1808" arabic-form="final" 
d="M1133 660h31q73 0 85 -54l2 -12q0 -83 -168 -237l-21 -5h-10q-68 0 -81 83q5 20 38 62q-247 -42 -412 -152q-97 -53 -283 -223q-152 -166 -152 -294q0 -106 150 -201q134 -69 301 -69h48q231 0 529 92q135 50 232 112q169 116 169 159q0 28 -152 104q-48 32 -48 73v3
q0 72 83 80h3l123 -16l33 -3l140 3h7l34 2q55 0 76 -69v-14q0 -66 -81 -78h-31l-52 -3q26 -48 26 -87q0 -96 -204 -225q-131 -96 -346 -174q-302 -99 -601 -99q-463 0 -567 296q-14 52 -14 98v21q0 188 297 455q215 173 363 230q302 142 453 142zM1180 1330q24 0 52 -27
q37 -35 37 -39l1 -4q0 -18 -28 -22h-5q-7 -4 -7 -13v-5q0 -23 47 -94q19 -32 19 -67q0 -47 -43 -79q-125 -125 -150 -125l-8 -1h-12q-25 0 -29 32q0 38 46 73l80 67q23 32 23 60q0 43 -62 111q-24 31 -24 59q0 49 34 67q16 7 29 7z" />
    <glyph glyph-name=".notdef" horiz-adv-x="684" 
d="M293 156v90h76v-90h-76zM300 313l-2 22q0 74 22 117q13 26 57 70q43 43 55 64q12 22 12 48q0 49 -31 81q-30 33 -69 33q-45 0 -74.5 -30t-36.5 -97l-67 11q9 95 58.5 139t121.5 44q71 0 119 -49q48 -48 48 -126q0 -44 -16 -76q-17 -32 -67 -81q-51 -48 -58 -76
q-10 -23 -10 -94h-62zM627 57v846h-570v-846h570zM684 960v-960h-684v960h684z" />
    <glyph glyph-name=".null" 
 />
    <glyph glyph-name="nonmarkingreturn" horiz-adv-x="413" 
 />
    <glyph glyph-name="space" unicode=" " horiz-adv-x="413" 
 />
    <glyph glyph-name="exclam" unicode="!" horiz-adv-x="600" 
d="M175 1235.5q8 99.5 76 112t105 -155.5t39.5 -375.5t-9 -282t-68 -73t-73 189t-47.5 336.5t-23 248.5zM350 317q37 0 48 -54q0 -23 -28 -38l-3 -20v-3h17q68 -21 68 -85q0 -80 -92 -113l-24 -3q-102 0 -115 129q0 140 102 184z" />
    <glyph glyph-name="percent" unicode="%" horiz-adv-x="1507" 
d="M1023 1328q47 0 64 -101v-5q0 -47 -87 -170q-149 -251 -400 -833q-111 -219 -212 -349l-24 -5h-12q-59 0 -76 106v5q0 38 84 174q127 243 391 791q69 141 232 371q20 16 40 16zM383 1247q103 0 159 -120v-43q0 -75 -112 -99h-26q-115 0 -115 69v13q0 13 22 47
q-13 22 -13 43q14 90 85 90zM1002 168q101 0 142 -124v-34q0 -94 -107 -137l-35 -4h-4q-100 0 -154 120v8q0 44 73 103q0 57 60 68h25z" />
    <glyph glyph-name="parenleft" unicode="(" horiz-adv-x="1595" 
d="M1272 1368.5q-23 -55.5 -219.5 -316.5t-205.5 -576v-45q1 -550 477 -776q58 -39 58 -97v-7q5 -83 -78 -87.5t-253.5 140t-291 392t-89.5 544.5t253.5 631.5t297 293.5t51.5 -96.5z" />
    <glyph glyph-name="parenright" unicode=")" horiz-adv-x="1730" 
d="M429 1457l18 6q96 35 337 -187.5t310 -416.5q184 -511 -296 -1120q-191 -198 -302 -265l-7 -3q-115 -23 -125 44l-4 12q-28 77 138 208q388 327 457.5 615.5t-30 490t-291.5 312.5t-234 182t29 122z" />
    <glyph glyph-name="asterisk" unicode="*" horiz-adv-x="1008" 
d="M477 874q57 0 76 -144q6 0 12 -60h4q108 120 152 120q60 -8 60 -52v-20q0 -26 -100 -108l-28 -32h76l136 4q38 0 56 -72q0 -76 -148 -76h-116l132 -112q28 -34 28 -68q0 -42 -52 -48h-12q-68 0 -156 80v-4l4 -104v-4l4 -24q-17 -68 -60 -68h-20q-60 0 -60 124
q-7 20 -12 132q-165 -152 -236 -152h-8q-40 8 -40 40v12q0 28 84 68q106 90 144 144h-36q-103 0 -232 -44q-64 15 -64 60v16q0 66 244 104v4l-48 36q-72 41 -72 80v8q16 60 60 60h12q42 0 172 -108v8l-28 144v4q11 52 72 52z" />
    <glyph glyph-name="plus" unicode="+" horiz-adv-x="1104" 
d="M485 816q67 0 76 -112l24 -136l323 12q72 -20 72 -92q0 -63 -100 -63l-251 -8l-4 -12q60 -267 60 -319q0 -53 -76 -68h-16q-72 0 -72 119q-52 256 -60 268q-60 0 -259 -36q-52 0 -64 68v16q0 69 116 79q120 24 179 24v4q-28 146 -28 192q17 64 80 64z" />
    <glyph glyph-name="comma" unicode="," horiz-adv-x="700" 
d="M362 248h12q74 0 124 -124l4 -28q0 -140 -116 -236l-40 -8q-20 6 -20 28q0 9 68 92l12 36h-4q-80 0 -112 144v20q14 76 72 76z" />
    <glyph glyph-name="hyphen" unicode="-" horiz-adv-x="970" 
d="M632 548h14q197 0 197 -24q18 -24 18 -45v-14q0 -58 -97 -58q-432 -11 -623 -35q-48 20 -48 62v14q0 58 97 66q246 34 442 34z" />
    <glyph glyph-name="period" unicode="." horiz-adv-x="713" 
d="M251 177q73 0 124 -96v-20q0 -49 -88 -68h-20q-76 0 -92 116q0 58 76 68z" />
    <glyph glyph-name="slash" unicode="/" horiz-adv-x="830" 
d="M685 1147q83 -27 76 -98l-2 -30q-378 -983 -485 -1139q-71 -91 -102 -88l-22 2q-41 3 -42 83l1 12q15 168 205 529q272 643 311 705q34 27 60 24z" />
    <glyph glyph-name="zero" unicode="0" horiz-adv-x="757" 
d="M356 571h40q139 0 204 -148l8 -56q0 -123 -140 -176q-26 -12 -64 -12h-36q-117 0 -192 108q-24 39 -24 80v28q0 82 88 144zM312 419l-4 -20q0 -45 64 -56h16q20 0 48 16q0 43 -108 48z" />
    <glyph glyph-name="zero" unicode="&#x6f0;" horiz-adv-x="757" 
d="M356 571h40q139 0 204 -148l8 -56q0 -123 -140 -176q-26 -12 -64 -12h-36q-117 0 -192 108q-24 39 -24 80v28q0 82 88 144zM312 419l-4 -20q0 -45 64 -56h16q20 0 48 16q0 43 -108 48z" />
    <glyph glyph-name="zero" unicode="&#x660;" horiz-adv-x="757" 
d="M356 571h40q139 0 204 -148l8 -56q0 -123 -140 -176q-26 -12 -64 -12h-36q-117 0 -192 108q-24 39 -24 80v28q0 82 88 144zM312 419l-4 -20q0 -45 64 -56h16q20 0 48 16q0 43 -108 48z" />
    <glyph glyph-name="one" unicode="1" horiz-adv-x="478" 
d="M148 1103q68 0 124.5 -217t127.5 -653l4 -55v-27q0 -151 -71 -151h-8q-85 0 -93.5 141.5t-154.5 874.5v11q0 61 71 76z" />
    <glyph glyph-name="one" unicode="&#x6f1;" horiz-adv-x="478" 
d="M148 1103q68 0 124.5 -217t127.5 -653l4 -55v-27q0 -151 -71 -151h-8q-85 0 -93.5 141.5t-154.5 874.5v11q0 61 71 76z" />
    <glyph glyph-name="one" unicode="&#x661;" horiz-adv-x="478" 
d="M148 1103q68 0 124.5 -217t127.5 -653l4 -55v-27q0 -151 -71 -151h-8q-85 0 -93.5 141.5t-154.5 874.5v11q0 61 71 76z" />
    <glyph glyph-name="two" unicode="2" horiz-adv-x="929" 
d="M806 1106h25q43 0 55 -65q-70 -219 -220 -305q-83 -35 -140 -35l-51 5h-20q198 -409 226 -631q-19 -75 -75 -75h-25q-82 0 -96 135q-93 349 -200 546l-183 314l-5 25v10q15 80 75 80h35q27 0 93 -115.5t211 -123.5q146 8 270 230z" />
    <glyph glyph-name="two" unicode="&#x6f2;" horiz-adv-x="929" 
d="M806 1106h25q43 0 55 -65q-70 -219 -220 -305q-83 -35 -140 -35l-51 5h-20q198 -409 226 -631q-19 -75 -75 -75h-25q-82 0 -96 135q-93 349 -200 546l-183 314l-5 25v10q15 80 75 80h35q27 0 93 -115.5t211 -123.5q146 8 270 230z" />
    <glyph glyph-name="two" unicode="&#x662;" horiz-adv-x="929" 
d="M806 1106h25q43 0 55 -65q-70 -219 -220 -305q-83 -35 -140 -35l-51 5h-20q198 -409 226 -631q-19 -75 -75 -75h-25q-82 0 -96 135q-93 349 -200 546l-183 314l-5 25v10q15 80 75 80h35q27 0 93 -115.5t211 -123.5q146 8 270 230z" />
    <glyph glyph-name="three" unicode="3" horiz-adv-x="1055" 
d="M150 1120q33 0 106.5 -105t165.5 -114q92 17 87.5 105t53.5 82h15q39 0 71 -107.5t91.5 -120.5t82.5 48t19 121.5t46 70.5t65.5 -55t-14.5 -187.5t-150.5 -132.5t-191.5 110h-4q-68 -141 -201 -92q83 -196 154 -539l23 -136q0 -56 -72 -68h-11q-65 0 -76 94
q-99 458 -171 608.5t-164 311.5l-4 23v8q0 61 79 75z" />
    <glyph glyph-name="three" unicode="&#x6f3;" horiz-adv-x="1055" 
d="M150 1120q33 0 106.5 -105t165.5 -114q92 17 87.5 105t53.5 82h15q39 0 71 -107.5t91.5 -120.5t82.5 48t19 121.5t46 70.5t65.5 -55t-14.5 -187.5t-150.5 -132.5t-191.5 110h-4q-68 -141 -201 -92q83 -196 154 -539l23 -136q0 -56 -72 -68h-11q-65 0 -76 94
q-99 458 -171 608.5t-164 311.5l-4 23v8q0 61 79 75z" />
    <glyph glyph-name="three" unicode="&#x663;" horiz-adv-x="1055" 
d="M150 1120q33 0 106.5 -105t165.5 -114q92 17 87.5 105t53.5 82h15q39 0 71 -107.5t91.5 -120.5t82.5 48t19 121.5t46 70.5t65.5 -55t-14.5 -187.5t-150.5 -132.5t-191.5 110h-4q-68 -141 -201 -92q83 -196 154 -539l23 -136q0 -56 -72 -68h-11q-65 0 -76 94
q-99 458 -171 608.5t-164 311.5l-4 23v8q0 61 79 75z" />
    <glyph glyph-name="four" unicode="4" horiz-adv-x="1142" 
d="M134 1008.5q58 2.5 127.5 -99t268.5 -124.5q-26 48 -26 98v4q0 175 281 311l17 4h17q55 -14 55 -55v-17q0 -42 -106 -81q-106 -77 -106 -166q13 -85 85 -85l21 -4l208 17q77 -21 77 -81v-5q0 -66 -145 -89q-93 -17 -178 -17h-43q-110 0 -255 30q167 -285 187 -585v-17
q0 -46 -72 -59q-81 9 -81 76q-18 226 -149 487q-120 197 -188.5 269.5t-60.5 129t66 59z" />
    <glyph glyph-name="four" unicode="&#x6f4;" horiz-adv-x="1142" 
d="M134 1008.5q58 2.5 127.5 -99t268.5 -124.5q-26 48 -26 98v4q0 175 281 311l17 4h17q55 -14 55 -55v-17q0 -42 -106 -81q-106 -77 -106 -166q13 -85 85 -85l21 -4l208 17q77 -21 77 -81v-5q0 -66 -145 -89q-93 -17 -178 -17h-43q-110 0 -255 30q167 -285 187 -585v-17
q0 -46 -72 -59q-81 9 -81 76q-18 226 -149 487q-120 197 -188.5 269.5t-60.5 129t66 59z" />
    <glyph glyph-name="four" unicode="&#x664;" horiz-adv-x="1142" 
d="M134 1008.5q58 2.5 127.5 -99t268.5 -124.5q-26 48 -26 98v4q0 175 281 311l17 4h17q55 -14 55 -55v-17q0 -42 -106 -81q-106 -77 -106 -166q13 -85 85 -85l21 -4l208 17q77 -21 77 -81v-5q0 -66 -145 -89q-93 -17 -178 -17h-43q-110 0 -255 30q167 -285 187 -585v-17
q0 -46 -72 -59q-81 9 -81 76q-18 226 -149 487q-120 197 -188.5 269.5t-60.5 129t66 59z" />
    <glyph glyph-name="five" unicode="5" horiz-adv-x="1096" 
d="M274 808h19q324 0 615 -277q94 -127 94 -226v-47q0 -190 -207 -239h-65q-135 0 -263 127q-122 -146 -235 -146q-133 0 -155 178l-5 19q0 224 282 423h5v5q-155 5 -155 70l-5 28q7 85 75 85zM556 564q-115 -50 -224.5 -158t-109.5 -228q6 -37 33 -37q81 0 179 131
q0 38 56 47q31 -1 141 -122q55 -37 108 -37h9q108 11 108 80l5 18q0 116 -225 268q-62 38 -80 38z" />
    <glyph glyph-name="five" unicode="&#x6f5;" horiz-adv-x="1096" 
d="M274 808h19q324 0 615 -277q94 -127 94 -226v-47q0 -190 -207 -239h-65q-135 0 -263 127q-122 -146 -235 -146q-133 0 -155 178l-5 19q0 224 282 423h5v5q-155 5 -155 70l-5 28q7 85 75 85zM556 564q-115 -50 -224.5 -158t-109.5 -228q6 -37 33 -37q81 0 179 131
q0 38 56 47q31 -1 141 -122q55 -37 108 -37h9q108 11 108 80l5 18q0 116 -225 268q-62 38 -80 38z" />
    </font>
</defs>
</svg>
